<svg xmlns="http://www.w3.org/2000/svg" viewBox="0 0 19.55 13.41"><defs><style>.cls-1{fill:#b41d6c;}.cls-2{fill:#93134a;}.cls-3{fill:#ff414d;}.cls-4{fill:#d8283f;}.cls-5{fill:#fabe02;}.cls-6{fill:#f59a1d;}.cls-7{fill:#d9ecf2;}.cls-8{fill:#bdd9e5;}.cls-9{fill:#26a3b9;}.cls-10{fill:#168aa5;}</style></defs><title>Recurso 21</title><g id="Capa_2" data-name="Capa 2"><g id="Layer_1" data-name="Layer 1"><path class="cls-1" d="M8.19,0H7.94A7.93,7.93,0,0,0,0,7.94H4a4,4,0,0,1,4-4h.25a4,4,0,0,1,4,4h4A7.94,7.94,0,0,0,8.19,0Z"/><path class="cls-2" d="M7.67,4H7.42a4,4,0,0,0-4,4H4A4,4,0,0,1,7.81,4Z"/><path class="cls-2" d="M8.19,0H7.81a7.94,7.94,0,0,1,7.8,7.94h.52A7.94,7.94,0,0,0,8.19,0Z"/><path class="cls-3" d="M12.87,3.26A6.59,6.59,0,0,0,8.19,1.32H7.94A6.62,6.62,0,0,0,1.32,7.94H4a4,4,0,0,1,4-4h.25a4,4,0,0,1,4,4H14.8A6.62,6.62,0,0,0,12.87,3.26Z"/><path class="cls-4" d="M7.67,4H7.42a4,4,0,0,0-4,4H4A4,4,0,0,1,7.81,4Z"/><path class="cls-4" d="M12.87,3.26A6.59,6.59,0,0,0,8.19,1.32H7.81a6.61,6.61,0,0,1,6.48,6.61h.51A6.62,6.62,0,0,0,12.87,3.26Z"/><path class="cls-5" d="M8.19,2.65H7.94A5.29,5.29,0,0,0,2.65,7.94H4a4,4,0,0,1,4-4h.25a4,4,0,0,1,4,4h1.32A5.29,5.29,0,0,0,8.19,2.65Z"/><path class="cls-6" d="M8.19,2.65H7.81A5.29,5.29,0,0,1,13,7.94h.51A5.29,5.29,0,0,0,8.19,2.65Z"/><path class="cls-6" d="M7.67,4H7.42a4,4,0,0,0-4,4H4A4,4,0,0,1,7.81,4Z"/><path class="cls-7" d="M6.18,8.72a2.46,2.46,0,0,1,0-.28A2.23,2.23,0,0,1,9.78,6.7a3.56,3.56,0,0,1,6.39,1.11,2.34,2.34,0,1,1,1,4.44H6.46a1.78,1.78,0,0,1-.28-3.53Z"/><path class="cls-8" d="M6.69,12.25H8.41a8.37,8.37,0,0,0-.86-1.56A8.37,8.37,0,0,0,6.69,12.25Z"/><path class="cls-8" d="M17.2,7.57a2.1,2.1,0,0,0-.56.07,2.34,2.34,0,0,1-.57,4.61H17.2a2.34,2.34,0,1,0,0-4.68Z"/><path class="cls-8" d="M15,7.81a2.4,2.4,0,0,1,1-.24h0a3.55,3.55,0,0,0-3.37-2.43,3.43,3.43,0,0,0-.56.05A3.53,3.53,0,0,1,15,7.81Z"/><path class="cls-8" d="M16.12,9.53A2.78,2.78,0,0,0,17,7.58a2.45,2.45,0,0,0-.8.23A3.6,3.6,0,0,1,16.12,9.53Z"/><path class="cls-8" d="M14,12.25a8.37,8.37,0,0,0-.86-1.56,8.37,8.37,0,0,0-.86,1.56Z"/><path class="cls-9" d="M7.89,12.5a.91.91,0,1,1-1.81,0A6,6,0,0,1,7,10.69,6,6,0,0,1,7.89,12.5Z"/><path class="cls-9" d="M13.47,12.5a.91.91,0,1,1-1.81,0,6,6,0,0,1,.9-1.81A6,6,0,0,1,13.47,12.5Z"/><path class="cls-10" d="M7,10.69l-.26.41a4,4,0,0,1,.64,1.4.91.91,0,0,1-.64.87.75.75,0,0,0,.26,0,.91.91,0,0,0,.91-.91A6,6,0,0,0,7,10.69Z"/><path class="cls-10" d="M12.56,10.69l-.26.41a4,4,0,0,1,.64,1.4.91.91,0,0,1-.64.87.75.75,0,0,0,.26,0,.91.91,0,0,0,.91-.91A6,6,0,0,0,12.56,10.69Z"/></g></g></svg>