<svg xmlns="http://www.w3.org/2000/svg" viewBox="0 0 18.67 17.39"><defs><style>.cls-1{fill:#d9ecf2;}.cls-2{fill:#bdd9e5;}.cls-3{fill:#26a3b9;}.cls-4{fill:#168aa5;}.cls-5{fill:#fabe02;}.cls-6{fill:#f59a1d;}</style></defs><title>Recurso 7</title><g id="Capa_2" data-name="Capa 2"><g id="Layer_1" data-name="Layer 1"><path class="cls-1" d="M12.08,0a2.16,2.16,0,0,1,2.1,1.66,1.39,1.39,0,1,1,.57,2.66H12.08a2.16,2.16,0,0,1,0-4.32Z"/><path class="cls-2" d="M14.75,1.54a1.86,1.86,0,0,0-.34,0,1.4,1.4,0,0,1,1.05,1.35,1.39,1.39,0,0,1-1.39,1.39h.68a1.39,1.39,0,1,0,0-2.78Z"/><path class="cls-2" d="M14,2.65a2.75,2.75,0,0,0-1.75.62A4.43,4.43,0,0,0,10,1.55a2,2,0,0,0-.09.61,2.16,2.16,0,0,0,2.16,2.16h2.67A1.4,1.4,0,0,0,16,3.51,2.78,2.78,0,0,0,14,2.65Z"/><path class="cls-2" d="M14.18,2.58a1.88,1.88,0,0,0,.59-1h0a1.39,1.39,0,0,0-.57.12A2,2,0,0,1,14.18,2.58Z"/><path class="cls-3" d="M16.78,6.66c0-.12,0-.23,0-.35A2.79,2.79,0,0,0,14,3.51a2.75,2.75,0,0,0-1.75.62,4.47,4.47,0,0,0-8,1.38,2.91,2.91,0,0,0-1.29-.3,2.95,2.95,0,0,0,0,5.89h13.5a2.23,2.23,0,0,0,.34-4.44Z"/><path class="cls-4" d="M8.45,8.25,6.18,11.1H9.3l2.26-2.85Z"/><path class="cls-4" d="M16.78,6.66c0-.12,0-.23,0-.35A2.79,2.79,0,0,0,14,3.51a2.62,2.62,0,0,0-.57.06,2.8,2.8,0,0,1,2.22,2.74c0,.12,0,.23,0,.35a2.23,2.23,0,0,1-.34,4.44h1.14a2.23,2.23,0,0,0,.34-4.44Z"/><path class="cls-4" d="M3.29,5.23a4.55,4.55,0,0,0,1,2.45,4.59,4.59,0,0,1-.08-2.17A3,3,0,0,0,3.29,5.23Z"/><polygon class="cls-5" points="14.16 12.42 12.12 12.42 10.13 14.92 11.88 14.92 9.91 17.39 14.63 14.28 12.68 14.28 14.16 12.42"/><polygon class="cls-5" points="10.53 8.25 7.42 8.25 4.37 12.07 7.04 12.07 4.04 15.83 11.24 11.1 8.26 11.1 10.53 8.25"/><polygon class="cls-6" points="13.89 14.28 10.72 16.37 9.91 17.39 14.63 14.28 13.89 14.28"/><polygon class="cls-6" points="12.68 14.28 14.16 12.42 13.43 12.42 11.94 14.28 12.68 14.28"/><polygon class="cls-6" points="8.26 11.1 10.53 8.25 9.49 8.25 7.22 11.1 8.26 11.1"/><polygon class="cls-6" points="10.2 11.1 5.19 14.39 4.04 15.83 11.24 11.1 10.2 11.1"/></g></g></svg>