<svg xmlns="http://www.w3.org/2000/svg" viewBox="0 0 18.55 11.37"><defs><style>.cls-1{fill:#d9ecf2;}.cls-2{fill:#bdd9e5;}.cls-3{fill:#26a3b9;}.cls-4{fill:#168aa5;}</style></defs><title>Recurso 9</title><g id="Capa_2" data-name="Capa 2"><g id="Layer_1" data-name="Layer 1"><path class="cls-1" d="M15.29,2.5a3.14,3.14,0,0,0-1.4.33,4.52,4.52,0,0,0-8.48.28A3,3,0,0,0,2.78,4.73l-.31,0A2.16,2.16,0,1,0,2.47,9H15.29a3.26,3.26,0,1,0,0-6.52Z"/><path class="cls-2" d="M12.87,3a2.92,2.92,0,0,1,1-.18l-.13-.3A4.53,4.53,0,0,0,9.7,0a3.27,3.27,0,0,0-.54,0A4.82,4.82,0,0,1,12.87,3Z"/><path class="cls-2" d="M15.29,2.5a3.41,3.41,0,0,0-.55,0A3.26,3.26,0,0,1,14.2,9h1.09a3.26,3.26,0,1,0,0-6.52Z"/><path class="cls-2" d="M17.46,8.19a1.56,1.56,0,0,0-1.35-.79,1.64,1.64,0,0,0-.67.15,3,3,0,0,0-5.82-.67A1.9,1.9,0,0,0,7,8.64,1.58,1.58,0,0,0,7,9h8.25A3.25,3.25,0,0,0,17.46,8.19Z"/><path class="cls-2" d="M4.29,3.34a2.36,2.36,0,0,0,1.37,1.8,2.24,2.24,0,0,1-.25-2A2.84,2.84,0,0,0,4.29,3.34Z"/><path class="cls-3" d="M16.11,8.24a1.5,1.5,0,0,0-.67.15,3,3,0,0,0-5.82-.67,1.9,1.9,0,1,0-.72,3.65h7.21a1.57,1.57,0,0,0,0-3.13Z"/><path class="cls-4" d="M14.48,8.39a1.62,1.62,0,0,1,1,0,.93.93,0,0,0,0-.13,2.94,2.94,0,0,0-2.94-2.79,2.63,2.63,0,0,0-.49,0A2.93,2.93,0,0,1,14.48,8.39Z"/><path class="cls-4" d="M16.11,8.24a1.51,1.51,0,0,0-.48.07,1.59,1.59,0,0,1,1.09,1.5,1.56,1.56,0,0,1-1.57,1.56h1a1.57,1.57,0,0,0,0-3.13Z"/><path class="cls-4" d="M9.12,7.59a1.6,1.6,0,0,0,.8,1.78,1.72,1.72,0,0,1-.3-1.65A1.6,1.6,0,0,0,9.12,7.59Z"/><path class="cls-3" d="M3.42.77H1.11A.29.29,0,0,1,.82.48.28.28,0,0,1,1.11.2H3.42A.28.28,0,0,1,3.7.48.29.29,0,0,1,3.42.77Z"/><path class="cls-3" d="M5.6.77h-1A.29.29,0,0,1,4.29.48.28.28,0,0,1,4.58.2h1a.28.28,0,0,1,.28.28A.29.29,0,0,1,5.6.77Z"/><path class="cls-3" d="M4.67,2.23H1.86A.28.28,0,0,1,1.57,2a.29.29,0,0,1,.29-.29H4.67A.28.28,0,0,1,5,2,.27.27,0,0,1,4.67,2.23Z"/><path class="cls-1" d="M1.93,3.5H.29A.28.28,0,0,1,0,3.22a.29.29,0,0,1,.29-.29H1.93a.29.29,0,0,1,.29.29A.28.28,0,0,1,1.93,3.5Z"/></g></g></svg>