<svg xmlns="http://www.w3.org/2000/svg" viewBox="0 0 9.87 18.25"><defs><style>.cls-1{fill:#d9ecf2;}.cls-2{fill:#bdd9e5;}.cls-3{fill:#fabe02;}.cls-4{fill:#f59a1d;}.cls-5{fill:#d8283f;}.cls-6{fill:#ff414d;}.cls-7{fill:#002d42;}</style></defs><title>Recurso 22</title><g id="Capa_2" data-name="Capa 2"><g id="Layer_1" data-name="Layer 1"><rect class="cls-1" width="9.87" height="18.25" rx="1.36"/><path class="cls-2" d="M3,4H2.17a.29.29,0,0,1,0-.57H3A.29.29,0,0,1,3,4Z"/><path class="cls-2" d="M3,5.27H2.17A.28.28,0,0,1,1.89,5a.29.29,0,0,1,.28-.29H3A.28.28,0,0,1,3.23,5,.27.27,0,0,1,3,5.27Z"/><path class="cls-2" d="M3,6.53H2.17a.29.29,0,0,1-.28-.29A.28.28,0,0,1,2.17,6H3a.27.27,0,0,1,.28.28A.28.28,0,0,1,3,6.53Z"/><path class="cls-2" d="M3,7.78H2.17a.29.29,0,0,1,0-.57H3a.29.29,0,0,1,0,.57Z"/><path class="cls-2" d="M3,9H2.17a.29.29,0,0,1,0-.57H3A.29.29,0,0,1,3,9Z"/><path class="cls-2" d="M3,10.28H2.17a.29.29,0,0,1,0-.57H3a.29.29,0,0,1,0,.57Z"/><path class="cls-2" d="M3,11.53H2.17a.28.28,0,0,1-.28-.28A.29.29,0,0,1,2.17,11H3a.28.28,0,0,1,.28.29A.27.27,0,0,1,3,11.53Z"/><path class="cls-2" d="M3,12.79H2.17a.29.29,0,0,1-.28-.29.28.28,0,0,1,.28-.28H3a.27.27,0,0,1,.28.28A.28.28,0,0,1,3,12.79Z"/><path class="cls-2" d="M8.51,0H7.43A1.35,1.35,0,0,1,8.78,1.36V16.89a1.35,1.35,0,0,1-1.35,1.36H8.51a1.36,1.36,0,0,0,1.36-1.36V1.36A1.36,1.36,0,0,0,8.51,0Z"/><path class="cls-3" d="M6.12,13.26V3.93a1.19,1.19,0,0,0-2.38,0v9.33a2.14,2.14,0,1,0,2.38,0Z"/><path class="cls-4" d="M5.58,14V4a.29.29,0,0,0-.29-.29A.28.28,0,0,0,5,4V14a1.08,1.08,0,1,0,.57,0Z"/><path class="cls-4" d="M3.36,15a2.12,2.12,0,0,1,.94-1.77V3.93a1.2,1.2,0,0,1,.91-1.16,1.27,1.27,0,0,0-.28,0A1.19,1.19,0,0,0,3.74,3.93v9.33a2.13,2.13,0,0,0,1.19,3.9l.28,0A2.14,2.14,0,0,1,3.36,15Z"/><path class="cls-5" d="M4.93,15.31A.28.28,0,0,1,4.65,15V4a.29.29,0,1,1,.57,0V15A.28.28,0,0,1,4.93,15.31Z"/><circle class="cls-6" cx="4.93" cy="15.03" r="1.08"/><path class="cls-5" d="M4.93,14H4.75a1.08,1.08,0,0,1,0,2.13l.18,0a1.08,1.08,0,0,0,0-2.16Z"/><path class="cls-7" d="M2.48,4H1.71a.29.29,0,1,1,0-.57h.77a.29.29,0,1,1,0,.57Z"/><path class="cls-7" d="M2.48,5.27H1.71A.28.28,0,0,1,1.42,5a.29.29,0,0,1,.29-.29h.77A.29.29,0,0,1,2.77,5,.28.28,0,0,1,2.48,5.27Z"/><path class="cls-7" d="M2.48,6.53H1.71a.29.29,0,0,1-.29-.29A.28.28,0,0,1,1.71,6h.77a.28.28,0,0,1,.29.28A.29.29,0,0,1,2.48,6.53Z"/><path class="cls-7" d="M2.48,7.78H1.71a.29.29,0,1,1,0-.57h.77a.29.29,0,1,1,0,.57Z"/><path class="cls-7" d="M2.48,9H1.71a.29.29,0,1,1,0-.57h.77a.29.29,0,1,1,0,.57Z"/><path class="cls-7" d="M2.48,10.28H1.71a.29.29,0,1,1,0-.57h.77a.29.29,0,1,1,0,.57Z"/><path class="cls-7" d="M2.48,11.53H1.71a.28.28,0,0,1-.29-.28A.29.29,0,0,1,1.71,11h.77a.29.29,0,0,1,.29.29A.28.28,0,0,1,2.48,11.53Z"/><path class="cls-7" d="M2.48,12.79H1.71a.29.29,0,0,1-.29-.29.28.28,0,0,1,.29-.28h.77a.28.28,0,0,1,.29.28A.29.29,0,0,1,2.48,12.79Z"/><path class="cls-6" d="M8.58,3.74a.7.7,0,0,1-.71.7.7.7,0,0,1-.7-.7A.7.7,0,0,1,7.87,3,.71.71,0,0,1,8.58,3.74Z"/><path class="cls-5" d="M7.87,3a.85.85,0,0,0-.22,0,.71.71,0,0,1,.49.67.7.7,0,0,1-.49.66.57.57,0,0,0,.22,0,.7.7,0,0,0,.71-.7A.71.71,0,0,0,7.87,3Z"/><path class="cls-7" d="M3.38,1.85l.52-.39c.16-.12.2-.2.2-.29S4,1,3.91,1a.43.43,0,0,0-.33.17L3.36,1A.69.69,0,0,1,3.92.7a.48.48,0,0,1,.54.46c0,.19-.08.33-.32.5l-.23.16h.56v.31H3.38Z"/><path class="cls-7" d="M4.6,1.92l.2-.23a.55.55,0,0,0,.37.15c.14,0,.22-.06.22-.14s-.07-.13-.25-.13H5V1.28h.16c.14,0,.22-.05.22-.13S5.28,1,5.15,1a.44.44,0,0,0-.32.15L4.63,1A.69.69,0,0,1,5.18.7c.34,0,.54.16.54.38a.35.35,0,0,1-.26.33.33.33,0,0,1,.29.32c0,.25-.22.43-.56.43A.79.79,0,0,1,4.6,1.92Z"/><path class="cls-7" d="M5.85,1.14a.35.35,0,0,1,.69,0,.35.35,0,0,1-.69,0Zm.5,0A.16.16,0,0,0,6.2,1,.16.16,0,0,0,6,1.14a.16.16,0,0,0,.16.15A.15.15,0,0,0,6.35,1.14Z"/></g></g></svg>