<svg xmlns="http://www.w3.org/2000/svg" viewBox="0 0 16.01 20.11"><defs><style>.cls-1{fill:#d9ecf2;}.cls-2{fill:#bdd9e5;}.cls-3{fill:#26a3b9;}.cls-4{fill:#168aa5;}</style></defs><title>Recurso 26</title><g id="Capa_2" data-name="Capa 2"><g id="Layer_1" data-name="Layer 1"><path class="cls-1" d="M5.83,0a5.24,5.24,0,1,0,5.24,5.23A5.23,5.23,0,0,0,5.83,0Z"/><path class="cls-2" d="M5.83,0a6.3,6.3,0,0,0-.75.05,5.23,5.23,0,0,1,0,10.36,4.74,4.74,0,0,0,.75.06A5.24,5.24,0,1,0,5.83,0Z"/><path class="cls-2" d="M7.08,2.85a.72.72,0,1,1-.71-.71A.71.71,0,0,1,7.08,2.85Z"/><path class="cls-1" d="M9.73,1.74a.92.92,0,0,0,.53,1.67.89.89,0,0,0,.43-.11A5,5,0,0,0,9.73,1.74Z"/><path class="cls-2" d="M5.28,6.23A1.28,1.28,0,1,1,4,5,1.27,1.27,0,0,1,5.28,6.23Z"/><path class="cls-2" d="M9.21,7a.72.72,0,1,1-.72-.72A.72.72,0,0,1,9.21,7Z"/><path class="cls-2" d="M6,8.69H1.9a5.64,5.64,0,0,0,.93.83H6a.42.42,0,0,0,.42-.42A.41.41,0,0,0,6,8.69Z"/><path class="cls-2" d="M.81,3.77H2.14a.42.42,0,0,0,.42-.42.41.41,0,0,0-.42-.41h-1A4.6,4.6,0,0,0,.81,3.77Z"/><path class="cls-2" d="M11,4.53H9.61A.42.42,0,0,0,9.19,5a.41.41,0,0,0,.42.41h1.45s0-.08,0-.13A5.49,5.49,0,0,0,11,4.53Z"/><path class="cls-1" d="M11.05,4.9V4.85l0-.32H9.52a5.32,5.32,0,0,1,0,.69v.13h1.5s0-.08,0-.13S11.06,5,11.05,4.9Z"/><path class="cls-3" d="M13.07,7.6A2.91,2.91,0,0,0,11.53,8a4.33,4.33,0,0,0-8.48.58,2.79,2.79,0,0,0-.58-.07,2.47,2.47,0,1,0,0,4.93h10.6a2.94,2.94,0,1,0,0-5.88Z"/><path class="cls-4" d="M13.07,7.6a2.67,2.67,0,0,0-.64.08,2.94,2.94,0,0,1-.65,5.8h1.29a2.94,2.94,0,1,0,0-5.88Z"/><path class="cls-4" d="M11.39,7.61a4.32,4.32,0,0,0-4-2.79,4.62,4.62,0,0,0-.65,0,4.48,4.48,0,0,1,3.49,3.06,2.27,2.27,0,0,0,.24,2.16A2.56,2.56,0,0,1,11.53,8a2.8,2.8,0,0,0-.13-.41Z"/><path class="cls-3" d="M5.84,16.2A.91.91,0,1,1,4,16.2a6,6,0,0,1,.91-1.81A6,6,0,0,1,5.84,16.2Z"/><path class="cls-3" d="M11.42,16.2a.91.91,0,1,1-1.81,0,6,6,0,0,1,.9-1.81A6,6,0,0,1,11.42,16.2Z"/><path class="cls-4" d="M4.93,14.39l-.27.42a4.05,4.05,0,0,1,.63,1.39.91.91,0,0,1-.63.86.76.76,0,0,0,.27.05.91.91,0,0,0,.91-.91A6,6,0,0,0,4.93,14.39Z"/><path class="cls-4" d="M10.51,14.39l-.27.42a4.05,4.05,0,0,1,.63,1.39.91.91,0,0,1-.63.86.81.81,0,0,0,.27.05.91.91,0,0,0,.91-.91A6,6,0,0,0,10.51,14.39Z"/><path class="cls-3" d="M8.84,19.2A.91.91,0,1,1,7,19.2a6,6,0,0,1,.91-1.81A6,6,0,0,1,8.84,19.2Z"/><path class="cls-4" d="M7.93,17.39l-.27.42a4.05,4.05,0,0,1,.63,1.39.91.91,0,0,1-.63.86.76.76,0,0,0,.27.05.91.91,0,0,0,.91-.91A6,6,0,0,0,7.93,17.39Z"/></g></g></svg>