<svg xmlns="http://www.w3.org/2000/svg" viewBox="0 0 16.61 16.61"><defs><style>.cls-1{fill:#d9ecf2;}.cls-2{fill:#bdd9e5;}.cls-3{fill:#0162a7;}.cls-4{fill:#004584;}</style></defs><title>Recurso 19</title><g id="Capa_2" data-name="Capa 2"><g id="Layer_1" data-name="Layer 1"><circle class="cls-1" cx="8.31" cy="8.31" r="8.31"/><path class="cls-2" d="M6.88.12V16.49a8.45,8.45,0,0,0,1.43.12V0A8.45,8.45,0,0,0,6.88.12Z"/><path class="cls-2" d="M6.33,12.09a1.14,1.14,0,1,1,1.13,1.13A1.13,1.13,0,0,1,6.33,12.09Z"/><path class="cls-1" d="M8.31,11.33A1.11,1.11,0,0,0,7.46,11a1.15,1.15,0,0,0-.58.16v2a1.17,1.17,0,0,0,1.43-.22Z"/><path class="cls-2" d="M2.12,13.85a1.44,1.44,0,0,0,.62-1.19A1.46,1.46,0,0,0,1.28,11.2a1.48,1.48,0,0,0-.69.18A8.39,8.39,0,0,0,2.12,13.85Z"/><path class="cls-2" d="M9.18,6.73a2,2,0,1,1,2,2A2,2,0,0,1,9.18,6.73Z"/><circle class="cls-2" cx="4.09" cy="5.58" r="1.15"/><path class="cls-1" d="M8.1,2.83h6.45a8.36,8.36,0,0,0-1.47-1.32h-5a.66.66,0,0,0,0,1.32Z"/><path class="cls-2" d="M16.28,10.64H14.17a.66.66,0,1,0,0,1.31h1.6A7.73,7.73,0,0,0,16.28,10.64Z"/><path class="cls-2" d="M.08,9.42H2.31a.66.66,0,1,0,0-1.32H0a1.48,1.48,0,0,0,0,.21A8.29,8.29,0,0,0,.08,9.42Z"/><path class="cls-3" d="M16.61,8.31A8.3,8.3,0,0,0,8.31,0V16.61A8.29,8.29,0,0,0,16.61,8.31Z"/><path class="cls-4" d="M8.31,0V.13a8.31,8.31,0,0,1,0,16.35v.13A8.31,8.31,0,0,0,8.31,0Z"/><path class="cls-4" d="M16.44,6.62A6,6,0,0,0,16.29,6a.32.32,0,0,0-.12.08L8.31,14v.68a.27.27,0,0,0,.2-.08Z"/><path class="cls-4" d="M8.31,1.51v.68h0a.27.27,0,0,0,.2-.08L10.24.38a.24.24,0,0,0,.07-.13A4.42,4.42,0,0,0,9.7.12Z"/><path class="cls-4" d="M16.15,11.06a6.89,6.89,0,0,0,.23-.81.28.28,0,0,0-.3.07l-5.81,5.81a.29.29,0,0,0-.07.27c.29-.07.58-.16.86-.25Z"/><path class="cls-4" d="M16.4,7.93,8.31,16v.59h.21l8.09-8.09V8.31c0-.16,0-.31,0-.47A.27.27,0,0,0,16.4,7.93Z"/><path class="cls-4" d="M15.62,4.56,8.31,11.87v.69a.32.32,0,0,0,.2-.08L16,5c-.08-.18-.17-.36-.26-.53Z"/><path class="cls-4" d="M8.31,3.58v.69a.28.28,0,0,0,.2-.09l3.3-3.3L11.87.8,11.32.57Z"/><path class="cls-4" d="M8.31,5.65v.69h0a.32.32,0,0,0,.2-.08L13.17,1.6v0l-.48-.32Z"/><path class="cls-4" d="M8.31,7.72v.69a.27.27,0,0,0,.2-.08l5.78-5.78c-.13-.14-.27-.27-.41-.4Z"/><path class="cls-4" d="M14.85,3.26,8.31,9.8v.69h0a.28.28,0,0,0,.2-.09l6.71-6.71c-.11-.15-.22-.31-.34-.46Z"/></g></g></svg>