<svg xmlns="http://www.w3.org/2000/svg" viewBox="0 0 18.64 16.33"><defs><style>.cls-1{fill:#d9ecf2;}.cls-2{fill:#bdd9e5;}.cls-3{fill:#26a3b9;}.cls-4{fill:#168aa5;}.cls-5{fill:#fabe02;}.cls-6{fill:#f59a1d;}</style></defs><title>Recurso 4</title><g id="Capa_2" data-name="Capa 2"><g id="Layer_1" data-name="Layer 1"><path class="cls-1" d="M13.14,11.44a5.51,5.51,0,1,0-5.5-5.51A5.51,5.51,0,0,0,13.14,11.44Z"/><path class="cls-2" d="M14.58,10.41a2.48,2.48,0,0,0-.82.14c0-.12,0-.24,0-.36a4.38,4.38,0,0,0-6.14-4,5.5,5.5,0,0,0,8.18,4.54A2.5,2.5,0,0,0,14.58,10.41Z"/><path class="cls-2" d="M13.14.43a5.55,5.55,0,0,0-.82.06,5.51,5.51,0,0,1,0,10.89,7.36,7.36,0,0,0,.82.06,5.51,5.51,0,0,0,0-11Z"/><path class="cls-1" d="M11.83,8.44a.75.75,0,1,1,.75.75A.75.75,0,0,1,11.83,8.44Z"/><path class="cls-2" d="M9,9.61a1,1,0,0,0,.41-.79,1,1,0,0,0-1-1A.88.88,0,0,0,8,8,5.55,5.55,0,0,0,9,9.61Z"/><path class="cls-2" d="M13.72,4.89a1.35,1.35,0,1,1,1.34,1.34A1.34,1.34,0,0,1,13.72,4.89Z"/><path class="cls-2" d="M9.59,4.13a.76.76,0,1,1,.76.76A.76.76,0,0,1,9.59,4.13Z"/><path class="cls-2" d="M13,2.3h4.27a5,5,0,0,0-1-.87H13a.44.44,0,0,0,0,.87Z"/><path class="cls-1" d="M17.27,2.3a5.09,5.09,0,0,0-.71-.68h0l-.26-.19H14.66a5.41,5.41,0,0,1,1,.87Z"/><path class="cls-2" d="M18.42,7.47H17a.44.44,0,0,0,0,.88h1.07A6.14,6.14,0,0,0,18.42,7.47Z"/><path class="cls-1" d="M17,7.47a.45.45,0,0,0-.26.09A4.72,4.72,0,0,1,16.6,8a.44.44,0,0,0,.42.34h1.07l.18-.42v0c0-.14.1-.29.14-.43H17Z"/><path class="cls-2" d="M7.69,6.67H9.17a.44.44,0,0,0,0-.88H7.64v.14A4.53,4.53,0,0,0,7.69,6.67Z"/><path class="cls-1" d="M9.61,6.23a.44.44,0,0,0-.27-.4,4.34,4.34,0,0,0-1.69.37v.14c0,.11,0,.22,0,.33H9.17A.44.44,0,0,0,9.61,6.23Z"/><path class="cls-3" d="M13.76,11.22a2.46,2.46,0,0,0-.81.14c0-.12,0-.23,0-.35a4.36,4.36,0,0,0-8.53-1.3,3.29,3.29,0,0,0-1-.17,3.4,3.4,0,0,0,0,6.79H13.76a2.56,2.56,0,1,0,0-5.11Z"/><path class="cls-4" d="M11.87,11v0a.42.42,0,0,0,.49.42l.59-.09V11A4.37,4.37,0,0,0,8.6,6.64a3.19,3.19,0,0,0-.54,0A4.36,4.36,0,0,1,11.87,11Z"/><path class="cls-4" d="M13.76,11.22a3.31,3.31,0,0,0-.54.06,2.55,2.55,0,0,1-.55,5h1.09a2.56,2.56,0,1,0,0-5.11Z"/><polygon class="cls-5" points="2.56 6.91 1.46 7.48 1.67 6.26 0.78 5.4 2.01 5.22 2.56 4.11 3.1 5.22 4.33 5.4 3.44 6.26 3.65 7.48 2.56 6.91"/><polygon class="cls-6" points="4.33 5.4 3.1 5.22 2.56 4.11 2.58 5.22 3.31 5.66 2.56 6.44 3.65 7.48 3.44 6.26 4.33 5.4"/><polygon class="cls-5" points="5.61 2.3 4.71 2.77 4.88 1.77 4.15 1.06 5.16 0.91 5.61 0 6.06 0.91 7.07 1.06 6.34 1.77 6.51 2.77 5.61 2.3"/><polygon class="cls-6" points="7.07 1.06 6.06 0.91 5.61 0 5.63 0.91 6.23 1.28 5.61 1.92 6.51 2.77 6.34 1.77 7.07 1.06"/></g></g></svg>