<svg xmlns="http://www.w3.org/2000/svg" viewBox="0 0 16.61 16.61"><defs><style>.cls-1{fill:#0162a7;}.cls-2{fill:#004584;}.cls-3{fill:#d9ecf2;}.cls-4{fill:#bdd9e5;}</style></defs><title>Recurso 18</title><g id="Capa_2" data-name="Capa 2"><g id="Layer_1" data-name="Layer 1"><circle class="cls-1" cx="8.31" cy="8.31" r="8.31" transform="translate(-3.44 8.31) rotate(-45)"/><path class="cls-2" d="M8.31,0a7.94,7.94,0,0,0-.85,0,8.31,8.31,0,0,1,0,16.53,7.94,7.94,0,0,0,.85,0A8.31,8.31,0,0,0,8.31,0Z"/><path class="cls-2" d="M2.47,10a.24.24,0,0,0,.2-.08L11.77.87l.06-.09L11.28.55l-9,9a.28.28,0,0,0,0,.4A.27.27,0,0,0,2.47,10Z"/><path class="cls-2" d="M14,2.24c-.14-.13-.28-.26-.43-.38L1.86,13.55c.12.15.25.29.38.43h0L14,2.25Z"/><path class="cls-2" d="M16.41,8,8,16.41a.27.27,0,0,0-.08.19h.69l8-8V8.31c0-.15,0-.29,0-.43A.27.27,0,0,0,16.41,8Z"/><path class="cls-2" d="M16.26,10.71a7.72,7.72,0,0,0,.2-.83.27.27,0,0,0-.25.08L10,16.21a.27.27,0,0,0-.08.25,7.72,7.72,0,0,0,.83-.2Z"/><path class="cls-2" d="M1.44,13s0,0,0,0L12.94,1.48s0,0,0,0l-.49-.31L1.13,12.49C1.23,12.66,1.33,12.82,1.44,13Z"/><path class="cls-2" d="M16.49,6.89c0-.2-.08-.41-.13-.61a.24.24,0,0,0-.13.07L6.35,16.23a.24.24,0,0,0-.07.13c.2.05.41.1.61.13Z"/><path class="cls-2" d="M3.17,14.84,14.84,3.17c-.12-.15-.24-.29-.37-.43h0L2.75,14.46h0Z"/><path class="cls-2" d="M16.12,5.47c-.07-.18-.15-.37-.23-.55L15.8,5,5,15.8l-.06.09.55.23Z"/><path class="cls-2" d="M15.55,4.25a5.09,5.09,0,0,0-.3-.5l-.05,0L3.79,15.2l0,.05a5.09,5.09,0,0,0,.5.3Z"/><path class="cls-3" d="M5.57,8.31A8.3,8.3,0,0,1,11.09.48,8.31,8.31,0,1,0,8.31,16.61a8.54,8.54,0,0,0,2.78-.47A8.31,8.31,0,0,1,5.57,8.31Z"/><path class="cls-4" d="M5.57,8.31A8.3,8.3,0,0,1,11.09.48,8.29,8.29,0,0,0,8.31,0H7.84a8.47,8.47,0,0,1,2.32.47,8.31,8.31,0,0,0,0,15.66,8.1,8.1,0,0,1-2.32.46h.47a8.54,8.54,0,0,0,2.78-.47A8.31,8.31,0,0,1,5.57,8.31Z"/><path class="cls-4" d="M5.4,11.91a2,2,0,0,0,.89-.2,8.39,8.39,0,0,1-.72-3.4c0-.15,0-.3,0-.45H5.4a2,2,0,1,0,0,4.05Z"/><path class="cls-4" d="M4.5,2.27A1.36,1.36,0,0,0,5.35.54,8.63,8.63,0,0,0,3,1.9,1.39,1.39,0,0,0,4.5,2.27Z"/><path class="cls-4" d="M.33,6H2.45a.66.66,0,0,0,0-1.32H.84A9.5,9.5,0,0,0,.33,6Z"/><path class="cls-4" d="M6.35,14.45a.66.66,0,0,0-.66-.66H2.07a8.4,8.4,0,0,0,1.47,1.32H5.69A.67.67,0,0,0,6.35,14.45Z"/></g></g></svg>