<svg xmlns="http://www.w3.org/2000/svg" viewBox="0 0 18.42 17.03"><defs><style>.cls-1{fill:#d9ecf2;}.cls-2{fill:#bdd9e5;}.cls-3{fill:#fabe02;}.cls-4{fill:#f59a1d;}</style></defs><title>Recurso 13</title><g id="Capa_2" data-name="Capa 2"><g id="Layer_1" data-name="Layer 1"><circle class="cls-1" cx="8.75" cy="8.21" r="7.91"/><path class="cls-2" d="M8.75.3a7.3,7.3,0,0,0-.94.06,7.91,7.91,0,0,1,0,15.71,7.3,7.3,0,0,0,.94.06A7.92,7.92,0,0,0,8.75.3Z"/><circle class="cls-2" cx="7.95" cy="11.81" r="1.08"/><path class="cls-2" d="M2.86,13.49A1.39,1.39,0,0,0,2.06,11a1.32,1.32,0,0,0-.66.17A7.8,7.8,0,0,0,2.86,13.49Z"/><circle class="cls-2" cx="11.52" cy="6.71" r="1.93"/><path class="cls-2" d="M3.64,5.62a1.1,1.1,0,1,1,1.1,1.09A1.09,1.09,0,0,1,3.64,5.62Z"/><path class="cls-2" d="M7.93,2.36a.62.62,0,0,1,.62-.62h4.74A7.59,7.59,0,0,1,14.69,3H8.55A.63.63,0,0,1,7.93,2.36Zm8.42,8.07h-2a.63.63,0,0,0,0,1.26h1.53A7.66,7.66,0,0,0,16.35,10.43Z"/><path class="cls-1" d="M14.46,10.43A9.09,9.09,0,0,1,14,11.6a.66.66,0,0,0,.31.09h1.53l.12-.25,0-.07a2.77,2.77,0,0,0,.1-.26l0-.06c0-.09.07-.18.1-.28v0c0-.1.07-.2.1-.31H14.46Z"/><path class="cls-1" d="M11.4,1.74A8,8,0,0,1,12.81,3h1.88a7.8,7.8,0,0,0-1-1h0c-.12-.1-.25-.19-.38-.28H11.4Z"/><path class="cls-2" d="M.91,9.27H3A.63.63,0,1,0,3,8H.84v.19A7.35,7.35,0,0,0,.91,9.27Z"/><polygon class="cls-3" points="16.76 2.36 15.77 2.73 16.08 1.72 15.42 0.9 16.47 0.88 17.05 0 17.4 1 18.41 1.28 17.57 1.91 17.62 2.97 16.76 2.36"/><polygon class="cls-4" points="17.05 0 16.99 1.24 17.48 1.5 16.87 1.89 17.62 2.97 17.57 1.91 18.41 1.28 17.4 1 17.05 0"/><polygon class="cls-3" points="1.71 16.3 1.08 17.03 0.89 16.09 0 15.72 0.84 15.24 0.92 14.28 1.63 14.93 2.57 14.71 2.17 15.59 2.67 16.41 1.71 16.3"/><polygon class="cls-4" points="0.92 14.28 1.34 15.35 1.9 15.28 1.63 15.85 2.67 16.41 2.17 15.59 2.57 14.71 1.63 14.93 0.92 14.28"/></g></g></svg>