<svg xmlns="http://www.w3.org/2000/svg" viewBox="0 0 17.54 16.04"><defs><style>.cls-1{fill:#d9ecf2;}.cls-2{fill:#bdd9e5;}.cls-3{fill:#26a3b9;}.cls-4{fill:#168aa5;}.cls-5{fill:#fabe02;}.cls-6{fill:#f59a1d;}</style></defs><title>Recurso 11</title><g id="Capa_2" data-name="Capa 2"><g id="Layer_1" data-name="Layer 1"><path class="cls-1" d="M12.34,6a5.51,5.51,0,0,1,1.11-6,5.58,5.58,0,0,0-2.06.45,5.5,5.5,0,1,0,4.38,10.1,5.36,5.36,0,0,0,1.74-1.2A5.51,5.51,0,0,1,12.34,6Z"/><path class="cls-2" d="M12.34,6a5.51,5.51,0,0,1,1.11-6,5.58,5.58,0,0,0-2.06.45,4.3,4.3,0,0,0-.48.24A5.23,5.23,0,0,1,12.08.53a5.51,5.51,0,0,0,4.06,9.36,5.51,5.51,0,0,1-1.27,1,5.28,5.28,0,0,0,.9-.3,5.36,5.36,0,0,0,1.74-1.2A5.51,5.51,0,0,1,12.34,6Z"/><path class="cls-1" d="M13.51,7.76A.75.75,0,0,0,14.34,9a.77.77,0,0,0,.36-.33A5.69,5.69,0,0,1,13.51,7.76Z"/><path class="cls-2" d="M11.28,10.5a.94.94,0,0,0,.06-.88A1,1,0,0,0,9.7,9.4,5.41,5.41,0,0,0,11.28,10.5Z"/><path class="cls-2" d="M9.6,5.26A.76.76,0,1,1,11,4.66a.75.75,0,0,1-.39,1A.76.76,0,0,1,9.6,5.26Z"/><path class="cls-1" d="M11,4.66a.77.77,0,0,0-.47-.43,5.05,5.05,0,0,0,.14,1.39A.75.75,0,0,0,11,4.66Z"/><path class="cls-2" d="M12.7,1l-1.89.82a.45.45,0,0,0-.23.58.44.44,0,0,0,.58.22l1-.43A6.09,6.09,0,0,1,12.7,1Z"/><path class="cls-1" d="M11.16,2.59l1-.43h0l.1-.28,0,0,.11-.26,0-.09a2.14,2.14,0,0,1,.1-.22L12.7,1l-1.42.62a5.36,5.36,0,0,0-.47,1A.43.43,0,0,0,11.16,2.59Z"/><path class="cls-2" d="M8.87,8.35l1.36-.59a.44.44,0,0,0,.22-.58A.43.43,0,0,0,9.88,7l-1.4.6a.5.5,0,0,0,0,.13A5.13,5.13,0,0,0,8.87,8.35Z"/><path class="cls-3" d="M15.77,11.88c0-.11,0-.22,0-.33a2.63,2.63,0,0,0-2.63-2.63,2.56,2.56,0,0,0-1.64.58A4.19,4.19,0,0,0,4,10.8,2.76,2.76,0,1,0,2.76,16H15.44a2.09,2.09,0,0,0,.33-4.16Z"/><path class="cls-4" d="M15.77,11.88c0-.11,0-.22,0-.33a2.63,2.63,0,0,0-2.63-2.63,2.83,2.83,0,0,0-.83.13,2.63,2.63,0,0,1,1.8,2.5c0,.11,0,.22,0,.33A2.09,2.09,0,0,1,13.78,16h1.66a2.09,2.09,0,0,0,.33-4.16Z"/><path class="cls-4" d="M3,10.53a2.78,2.78,0,0,0,1,2.3,4.25,4.25,0,0,1-.07-2A2.69,2.69,0,0,0,3,10.53Z"/><polygon class="cls-5" points="5.03 3.33 3.93 3.91 4.14 2.69 3.25 1.82 4.48 1.65 5.03 0.53 5.58 1.65 6.8 1.82 5.91 2.69 6.12 3.91 5.03 3.33"/><polygon class="cls-6" points="5.03 0.53 5.03 1.98 5.71 2.22 5.03 2.63 6.12 3.91 5.91 2.69 6.8 1.82 5.58 1.65 5.03 0.53"/><polygon class="cls-5" points="1.43 8.35 0.63 8.77 0.78 7.88 0.14 7.26 1.03 7.13 1.43 6.32 1.82 7.13 2.71 7.26 2.07 7.88 2.22 8.77 1.43 8.35"/><polygon class="cls-6" points="1.43 6.32 1.51 7.43 1.9 7.54 1.52 7.96 2.22 8.77 2.07 7.88 2.71 7.26 1.82 7.13 1.43 6.32"/></g></g></svg>