<svg xmlns="http://www.w3.org/2000/svg" viewBox="0 0 18.67 14.24"><defs><style>.cls-1{fill:#d9ecf2;}.cls-2{fill:#bdd9e5;}.cls-3{fill:#26a3b9;}.cls-4{fill:#168aa5;}</style></defs><title>Recurso 17</title><g id="Capa_2" data-name="Capa 2"><g id="Layer_1" data-name="Layer 1"><path class="cls-1" d="M3.21,4.7A2.68,2.68,0,0,1,4.34,5a5,5,0,0,1,9.88-1.14,3.14,3.14,0,0,1,1.23-.24,3.23,3.23,0,0,1,0,6.45H3.21a2.67,2.67,0,1,1,0-5.33Z"/><path class="cls-2" d="M8,5.4a.51.51,0,0,0,1,0A1.6,1.6,0,1,1,10.61,7H6.77a.51.51,0,0,0-.51.5.5.5,0,0,0,.51.5h3.84A2.61,2.61,0,1,0,8,5.4Z"/><path class="cls-2" d="M4.35,9.54a.5.5,0,0,0-.5-.5H1.14a2.66,2.66,0,0,0,2.07,1H4A.5.5,0,0,0,4.35,9.54Z"/><path class="cls-2" d="M16.14,7.92H14.36a.51.51,0,0,0,0,1h1.78a.51.51,0,0,0,0-1Z"/><path class="cls-2" d="M11.67,9H5.87a.5.5,0,1,0,0,1h7.85A2.6,2.6,0,0,0,11.67,9Z"/><path class="cls-2" d="M3,8H4.73a.5.5,0,0,0,.51-.5A.51.51,0,0,0,4.73,7H3a.51.51,0,0,0-.51.5A.5.5,0,0,0,3,8Z"/><path class="cls-2" d="M12.82,3.82a3.14,3.14,0,0,1,1.23-.24h.1A5,5,0,0,0,9.35,0a5.49,5.49,0,0,0-.7.05A5,5,0,0,1,12.82,3.82Z"/><path class="cls-2" d="M15.45,3.58a2.68,2.68,0,0,0-.7.08,3.22,3.22,0,0,1-.7,6.37h1.4a3.23,3.23,0,0,0,0-6.45Z"/><path class="cls-2" d="M13.72,6.63a4.07,4.07,0,0,0,1.91-3h-.18a3.14,3.14,0,0,0-1.23.24A2.92,2.92,0,0,1,13.72,6.63Z"/><path class="cls-3" d="M3.18,10H.5a.5.5,0,0,1,0-1H3.18a.5.5,0,0,1,0,1Z"/><path class="cls-3" d="M4.07,8H2.29a.5.5,0,0,1-.5-.5.5.5,0,0,1,.5-.5H4.07a.5.5,0,0,1,.5.5A.5.5,0,0,1,4.07,8Z"/><path class="cls-3" d="M15.47,8.93H13.69a.51.51,0,0,1,0-1h1.78a.51.51,0,0,1,0,1Z"/><path class="cls-3" d="M11,14.24a2.61,2.61,0,0,1-2.61-2.61.51.51,0,0,1,1,0A1.6,1.6,0,1,0,11,10H5.21a.5.5,0,1,1,0-1H11a2.61,2.61,0,1,1,0,5.21Z"/><path class="cls-3" d="M9.94,2.79A2.6,2.6,0,0,0,7.34,5.4a.5.5,0,0,0,.5.5.5.5,0,0,0,.5-.5A1.6,1.6,0,1,1,9.94,7H6.1a.5.5,0,0,0-.5.5.5.5,0,0,0,.5.5H9.94a2.61,2.61,0,1,0,0-5.21Z"/><path class="cls-4" d="M3.18,9H2.63a.5.5,0,1,1,0,1h.55a.5.5,0,0,0,0-1Z"/><path class="cls-4" d="M4.07,7H3.52A.51.51,0,0,1,4,7.5a.5.5,0,0,1-.51.5h.55a.5.5,0,0,0,.5-.5A.5.5,0,0,0,4.07,7Z"/><path class="cls-4" d="M15.47,7.92h-.54a.51.51,0,0,1,0,1h.54a.51.51,0,0,0,0-1Z"/><path class="cls-4" d="M9.4,11.63a.51.51,0,0,0-.51-.5.5.5,0,0,0-.27.08.5.5,0,0,1,.23.42,1.61,1.61,0,0,0,1.6,1.61,1.27,1.27,0,0,0,.28,0A1.6,1.6,0,0,1,9.4,11.63Z"/><path class="cls-4" d="M11,9h-.55a2.6,2.6,0,0,1,.28,5.19l.27,0A2.61,2.61,0,1,0,11,9Z"/><path class="cls-4" d="M7.79,5.4a.52.52,0,0,1-.22.42.48.48,0,0,0,.27.08.5.5,0,0,0,.5-.5A1.61,1.61,0,0,1,9.67,3.82l-.27,0A1.6,1.6,0,0,0,7.79,5.4Z"/><path class="cls-4" d="M9.94,2.79l-.27,0A2.6,2.6,0,0,1,9.4,8h.54a2.61,2.61,0,1,0,0-5.21Z"/></g></g></svg>