<svg xmlns="http://www.w3.org/2000/svg" viewBox="0 0 16 18.25"><defs><style>.cls-1{fill:#fabe02;}.cls-2{fill:#f59a1d;}.cls-3{fill:#d9ecf2;}.cls-4{fill:#bdd9e5;}.cls-5{fill:#d8283f;}.cls-6{fill:#ff414d;}.cls-7{fill:#002d42;}</style></defs><title>Recurso 23</title><g id="Capa_2" data-name="Capa 2"><g id="Layer_1" data-name="Layer 1"><circle class="cls-1" cx="6.46" cy="9.12" r="4.32"/><path class="cls-1" d="M2.68,5.63a.32.32,0,0,1-.2-.08l-.74-.74a.3.3,0,0,1,0-.41.28.28,0,0,1,.4,0l.74.75a.27.27,0,0,1,0,.4A.28.28,0,0,1,2.68,5.63ZM1.58,7.81a.28.28,0,0,0-.21-.34l-1-.28a.29.29,0,0,0-.35.2.28.28,0,0,0,.2.35l1,.28H1.3A.3.3,0,0,0,1.58,7.81ZM.36,11.05l1-.27a.29.29,0,0,0,.21-.35.29.29,0,0,0-.35-.2l-1,.27a.29.29,0,0,0-.2.35.28.28,0,0,0,.28.21ZM8.12,4l.27-1a.29.29,0,0,0-.2-.35.28.28,0,0,0-.35.21l-.28,1a.29.29,0,0,0,.21.35h.07A.29.29,0,0,0,8.12,4Zm-3,.2a.29.29,0,0,0,.2-.35l-.27-1a.29.29,0,0,0-.35-.21.29.29,0,0,0-.2.35L4.8,4a.28.28,0,0,0,.28.21Zm6,9.6a.28.28,0,0,0,0-.4l-.74-.74a.3.3,0,0,0-.41,0,.28.28,0,0,0,0,.4l.74.74a.29.29,0,0,0,.21.09A.28.28,0,0,0,11.18,13.84Zm-.74-8.29.74-.74a.29.29,0,0,0-.41-.41L10,5.15a.28.28,0,0,0,0,.4.32.32,0,0,0,.2.08A.32.32,0,0,0,10.44,5.55Zm-8.3,8.29.74-.74a.27.27,0,0,0,0-.4.28.28,0,0,0-.4,0l-.74.74a.28.28,0,0,0,0,.4.27.27,0,0,0,.4,0Zm10.77-3a.29.29,0,0,0-.21-.35l-1-.27a.29.29,0,0,0-.15.55l1,.27h.07A.29.29,0,0,0,12.91,10.85ZM11.69,8l1-.28a.28.28,0,0,0,.21-.35.29.29,0,0,0-.35-.2l-1,.28a.28.28,0,0,0-.2.34.29.29,0,0,0,.28.22ZM5.08,15.37l.27-1a.28.28,0,0,0-.2-.34.27.27,0,0,0-.35.2l-.27,1a.29.29,0,0,0,.2.35H4.8A.28.28,0,0,0,5.08,15.37Zm3.11.2a.29.29,0,0,0,.2-.35l-.27-1a.29.29,0,0,0-.56.14l.28,1a.28.28,0,0,0,.27.21Z"/><path class="cls-2" d="M5.76,4.86v8.53a4.32,4.32,0,1,0,0-8.53Z"/><rect class="cls-3" x="6.46" width="9.54" height="18.25" rx="1.36"/><path class="cls-4" d="M9.2,3H8.43a.28.28,0,0,1-.29-.28.29.29,0,0,1,.29-.29H9.2a.29.29,0,0,1,.29.29A.28.28,0,0,1,9.2,3Z"/><path class="cls-4" d="M9.2,4.28H8.43A.29.29,0,0,1,8.14,4a.28.28,0,0,1,.29-.28H9.2A.28.28,0,0,1,9.49,4,.29.29,0,0,1,9.2,4.28Z"/><path class="cls-4" d="M9.2,5.53H8.43a.29.29,0,1,1,0-.57H9.2a.29.29,0,1,1,0,.57Z"/><path class="cls-4" d="M9.2,6.78H8.43a.29.29,0,1,1,0-.57H9.2a.29.29,0,1,1,0,.57Z"/><path class="cls-4" d="M9.2,8H8.43a.29.29,0,1,1,0-.57H9.2A.29.29,0,1,1,9.2,8Z"/><path class="cls-4" d="M9.2,9.28H8.43A.28.28,0,0,1,8.14,9a.29.29,0,0,1,.29-.29H9.2A.29.29,0,0,1,9.49,9,.28.28,0,0,1,9.2,9.28Z"/><path class="cls-4" d="M9.2,10.54H8.43a.29.29,0,0,1-.29-.29A.28.28,0,0,1,8.43,10H9.2a.28.28,0,0,1,.29.28A.29.29,0,0,1,9.2,10.54Z"/><path class="cls-4" d="M9.2,11.79H8.43a.29.29,0,0,1-.29-.29.28.28,0,0,1,.29-.28H9.2a.28.28,0,0,1,.29.28A.29.29,0,0,1,9.2,11.79Z"/><path class="cls-4" d="M14.64,0h-.92a1.36,1.36,0,0,1,1.36,1.36V16.89a1.36,1.36,0,0,1-1.36,1.36h.92A1.36,1.36,0,0,0,16,16.89V1.36A1.36,1.36,0,0,0,14.64,0Z"/><path class="cls-1" d="M12.42,12.43V3.1A1.19,1.19,0,1,0,10,3.1v9.33a2.13,2.13,0,1,0,2.38,0Z"/><path class="cls-2" d="M11.9,13.16v-10a.29.29,0,0,0-.57,0v10a1.09,1.09,0,1,0,.57,0Z"/><path class="cls-2" d="M9.67,14.2a2.13,2.13,0,0,1,.95-1.77V3.1A1.18,1.18,0,0,1,11.52,2a1.45,1.45,0,0,0-.29,0A1.19,1.19,0,0,0,10,3.1v9.33a2.13,2.13,0,0,0,1.19,3.9,1.42,1.42,0,0,0,.29,0A2.14,2.14,0,0,1,9.67,14.2Z"/><path class="cls-5" d="M11.23,14.49a.29.29,0,0,1-.29-.29v-11a.28.28,0,0,1,.29-.28.27.27,0,0,1,.28.28v11A.28.28,0,0,1,11.23,14.49Z"/><circle class="cls-6" cx="11.23" cy="14.2" r="1.08"/><path class="cls-5" d="M11.23,13.12l-.18,0A1.07,1.07,0,0,1,12,14.2a1.09,1.09,0,0,1-.9,1.07h.18a1.08,1.08,0,0,0,0-2.16Z"/><path class="cls-7" d="M8.78,3H8a.28.28,0,0,1-.28-.28A.29.29,0,0,1,8,2.45h.78a.28.28,0,0,1,.28.29A.27.27,0,0,1,8.78,3Z"/><path class="cls-7" d="M8.78,4.28H8A.29.29,0,0,1,7.72,4,.28.28,0,0,1,8,3.71h.78A.27.27,0,0,1,9.06,4,.28.28,0,0,1,8.78,4.28Z"/><path class="cls-7" d="M8.78,5.53H8A.29.29,0,0,1,8,5h.78a.29.29,0,0,1,0,.57Z"/><path class="cls-7" d="M8.78,6.78H8a.29.29,0,0,1,0-.57h.78a.29.29,0,0,1,0,.57Z"/><path class="cls-7" d="M8.78,8H8a.29.29,0,0,1,0-.57h.78a.29.29,0,0,1,0,.57Z"/><path class="cls-7" d="M8.78,9.28H8A.28.28,0,0,1,7.72,9,.29.29,0,0,1,8,8.71h.78A.28.28,0,0,1,9.06,9,.27.27,0,0,1,8.78,9.28Z"/><path class="cls-7" d="M8.78,10.54H8a.29.29,0,0,1-.28-.29A.28.28,0,0,1,8,10h.78a.27.27,0,0,1,.28.28A.28.28,0,0,1,8.78,10.54Z"/><path class="cls-7" d="M8.78,11.79H8a.29.29,0,0,1-.28-.29A.28.28,0,0,1,8,11.22h.78a.27.27,0,0,1,.28.28A.28.28,0,0,1,8.78,11.79Z"/><path class="cls-6" d="M14.87,2.74a.7.7,0,0,1-.7.71.71.71,0,0,1,0-1.42A.7.7,0,0,1,14.87,2.74Z"/><path class="cls-5" d="M14.17,2a1.08,1.08,0,0,0-.19,0,.71.71,0,0,1,0,1.36,1.08,1.08,0,0,0,.19,0,.71.71,0,0,0,0-1.42Z"/></g></g></svg>