<svg xmlns="http://www.w3.org/2000/svg" viewBox="0 0 16.14 18.74"><defs><style>.cls-1{fill:#fabe02;}.cls-2{fill:#f59a1d;}.cls-3{fill:#26a3b9;}.cls-4{fill:#168aa5;}</style></defs><title>Recurso 15</title><g id="Capa_2" data-name="Capa 2"><g id="Layer_1" data-name="Layer 1"><path class="cls-1" d="M3.4,3.4a4.32,4.32,0,1,0,6.11,0A4.32,4.32,0,0,0,3.4,3.4Z"/><path class="cls-2" d="M9.51,9.51A4.29,4.29,0,0,0,10.73,7.1,4.32,4.32,0,0,0,3.2,9.29a2.09,2.09,0,0,0,.2.22A4.32,4.32,0,0,0,9.51,9.51Z"/><path class="cls-2" d="M9.51,3.4a4.32,4.32,0,0,0-3.6-1.23A4.36,4.36,0,0,1,8.42,3.4a4.32,4.32,0,0,1,0,6.11,4.24,4.24,0,0,1-2.51,1.23,4.26,4.26,0,0,0,3.6-1.23A4.32,4.32,0,0,0,9.51,3.4Z"/><path class="cls-1" d="M2.68,3a.28.28,0,0,1-.2-.09l-.74-.74a.28.28,0,1,1,.4-.4l.74.74a.27.27,0,0,1,0,.4A.25.25,0,0,1,2.68,3ZM1.58,5.15a.29.29,0,0,0-.21-.35l-1-.27a.29.29,0,0,0-.15.55l1,.27H1.3A.29.29,0,0,0,1.58,5.15ZM.36,8.39l1-.27a.29.29,0,1,0-.14-.56l-1,.28a.28.28,0,0,0-.2.35.29.29,0,0,0,.28.21Zm7.76-7,.27-1A.29.29,0,0,0,8.19,0a.28.28,0,0,0-.35.2l-.28,1a.29.29,0,0,0,.21.35h.07A.3.3,0,0,0,8.12,1.37Zm-3,.21a.29.29,0,0,0,.2-.35l-.27-1a.29.29,0,0,0-.55.15l.27,1a.29.29,0,0,0,.28.22Zm6,9.6a.28.28,0,0,0,0-.4L10.44,10a.29.29,0,0,0-.41.41l.74.74a.32.32,0,0,0,.21.08A.32.32,0,0,0,11.18,11.18Zm-.74-8.3.74-.74a.28.28,0,0,0,0-.4.3.3,0,0,0-.41,0L10,2.48a.29.29,0,0,0,.2.49A.29.29,0,0,0,10.44,2.88Zm-8.3,8.3.74-.74a.28.28,0,0,0,0-.41.28.28,0,0,0-.4,0l-.74.75a.28.28,0,0,0,0,.4.29.29,0,0,0,.4,0Zm10.77-3a.28.28,0,0,0-.21-.35l-1-.28a.29.29,0,0,0-.35.21.29.29,0,0,0,.2.35l1,.27h.07A.3.3,0,0,0,12.91,8.19ZM11.69,5.35l1-.27a.28.28,0,1,0-.14-.55l-1,.27a.29.29,0,0,0-.2.35.28.28,0,0,0,.28.21ZM5.08,12.7l.27-1a.29.29,0,0,0-.55-.15l-.27,1a.29.29,0,0,0,.2.35H4.8A.29.29,0,0,0,5.08,12.7Zm3.11.21a.29.29,0,0,0,.2-.35l-.27-1a.29.29,0,0,0-.35-.2.29.29,0,0,0-.21.35l.28,1a.29.29,0,0,0,.27.22Z"/><path class="cls-3" d="M13.2,9.24a3,3,0,0,0-1.54.43,4.33,4.33,0,0,0-8.48.59,2.27,2.27,0,0,0-.59-.07,2.47,2.47,0,0,0,0,4.93H13.2a2.94,2.94,0,1,0,0-5.88Z"/><path class="cls-4" d="M13.2,9.24a2.81,2.81,0,0,0-.65.07,2.94,2.94,0,0,1-.64,5.81H13.2a2.94,2.94,0,1,0,0-5.88Z"/><path class="cls-4" d="M11.52,9.24a4.34,4.34,0,0,0-4-2.78,4.77,4.77,0,0,0-.66,0,4.44,4.44,0,0,1,3.5,3.06,2.25,2.25,0,0,0,.24,2.15,2.57,2.57,0,0,1,1.1-2.05c0-.14-.08-.27-.13-.41Z"/><path class="cls-3" d="M6,17.84a.91.91,0,0,1-1.81,0A5.85,5.85,0,0,1,5.06,16,5.87,5.87,0,0,1,6,17.84Z"/><path class="cls-3" d="M11.55,17.84a.91.91,0,0,1-1.82,0A5.85,5.85,0,0,1,10.64,16,5.85,5.85,0,0,1,11.55,17.84Z"/><path class="cls-4" d="M5.06,16s-.12.17-.28.42a3.8,3.8,0,0,1,.63,1.39.9.9,0,0,1-.63.86.86.86,0,0,0,.28,0,.9.9,0,0,0,.9-.9A5.87,5.87,0,0,0,5.06,16Z"/><path class="cls-4" d="M10.64,16s-.12.17-.28.42A3.84,3.84,0,0,1,11,17.84a.91.91,0,0,1-.64.86.86.86,0,0,0,.28,0,.9.9,0,0,0,.91-.9A5.85,5.85,0,0,0,10.64,16Z"/></g></g></svg>