<svg xmlns="http://www.w3.org/2000/svg" viewBox="0 0 19.36 16.72"><defs><style>.cls-1{fill:#fabe02;}.cls-2{fill:#f59a1d;}.cls-3{fill:#26a3b9;}.cls-4{fill:#168aa5;}</style></defs><title>Recurso 12</title><g id="Capa_2" data-name="Capa 2"><g id="Layer_1" data-name="Layer 1"><path class="cls-1" d="M12.11,2.54a4.71,4.71,0,1,0,4.71,4.71A4.71,4.71,0,0,0,12.11,2.54Z"/><path class="cls-2" d="M12.11,2.54a4.89,4.89,0,0,0-.66,0,4.71,4.71,0,0,1,0,9.32,4.89,4.89,0,0,0,.66.05,4.71,4.71,0,0,0,0-9.42Z"/><path class="cls-2" d="M14,8.06a2.79,2.79,0,0,0-1.75.61,4.48,4.48,0,0,0-3.7-2,4.3,4.3,0,0,0-1.14.15c0,.13,0,.26,0,.39a4.71,4.71,0,0,0,8.94,2.07A2.79,2.79,0,0,0,14,8.06Z"/><path class="cls-1" d="M12.11,1.72a.28.28,0,0,1-.28-.29V.29A.28.28,0,0,1,12.11,0a.29.29,0,0,1,.29.29V1.43A.29.29,0,0,1,12.11,1.72Z"/><path class="cls-1" d="M9.2,2.49A.27.27,0,0,1,9,2.35l-.58-1A.29.29,0,0,1,8.49,1a.29.29,0,0,1,.39.11l.57,1a.29.29,0,0,1-.1.39A.4.4,0,0,1,9.2,2.49Z"/><path class="cls-1" d="M7.07,4.62a.35.35,0,0,1-.14,0L5.94,4a.28.28,0,0,1,.28-.49l1,.57a.29.29,0,0,1,.1.39A.29.29,0,0,1,7.07,4.62Z"/><path class="cls-1" d="M17.15,4.62a.3.3,0,0,1-.25-.14A.29.29,0,0,1,17,4.09l1-.57a.28.28,0,0,1,.29.49l-1,.58A.32.32,0,0,1,17.15,4.62Z"/><path class="cls-1" d="M15,2.49a.32.32,0,0,1-.14,0,.29.29,0,0,1-.11-.39l.58-1A.28.28,0,0,1,15.74,1a.29.29,0,0,1,.1.39l-.57,1A.29.29,0,0,1,15,2.49Z"/><path class="cls-1" d="M12.11,14.5a.28.28,0,0,1-.28-.29V13.07a.28.28,0,0,1,.28-.29.29.29,0,0,1,.29.29v1.14A.29.29,0,0,1,12.11,14.5Z"/><path class="cls-1" d="M19.08,7.53H17.93a.27.27,0,0,1-.28-.28A.28.28,0,0,1,17.93,7h1.15a.29.29,0,0,1,.28.29A.28.28,0,0,1,19.08,7.53Z"/><path class="cls-1" d="M6.29,7.53H5.15a.28.28,0,0,1-.29-.28A.29.29,0,0,1,5.15,7H6.29a.29.29,0,0,1,.29.29A.28.28,0,0,1,6.29,7.53Z"/><path class="cls-1" d="M15.59,13.56a.28.28,0,0,1-.24-.14l-.58-1a.29.29,0,0,1,.11-.39.29.29,0,0,1,.39.1l.57,1a.29.29,0,0,1-.1.39A.4.4,0,0,1,15.59,13.56Z"/><path class="cls-1" d="M18.14,11A.33.33,0,0,1,18,11l-1-.58A.28.28,0,0,1,16.9,10a.29.29,0,0,1,.39-.11l1,.57a.29.29,0,0,1,.1.39A.29.29,0,0,1,18.14,11Z"/><path class="cls-1" d="M6.08,11a.28.28,0,0,1-.24-.15.28.28,0,0,1,.1-.39l1-.57a.28.28,0,0,1,.39.11.28.28,0,0,1-.1.38l-1,.58A.33.33,0,0,1,6.08,11Z"/><path class="cls-1" d="M8.63,13.56a.32.32,0,0,1-.14,0,.29.29,0,0,1-.11-.39l.58-1a.28.28,0,1,1,.49.29l-.57,1A.3.3,0,0,1,8.63,13.56Z"/><path class="cls-3" d="M16.78,12.28c0-.11,0-.23,0-.35a2.8,2.8,0,0,0-4.54-2.18,4.47,4.47,0,0,0-8,1.39A2.94,2.94,0,0,0,0,13.78a2.94,2.94,0,0,0,2.94,2.94h13.5a2.23,2.23,0,0,0,.34-4.44Z"/><path class="cls-4" d="M16.78,12.28c0-.11,0-.23,0-.35A2.79,2.79,0,0,0,14,9.14a2.55,2.55,0,0,0-.84.13,2.79,2.79,0,0,1,1.95,2.66,2,2,0,0,1,0,.35,2.23,2.23,0,0,1-.34,4.44h1.69a2.23,2.23,0,0,0,.34-4.44Z"/><path class="cls-4" d="M3,10.84a3.28,3.28,0,0,0,1.35,2.47,4.61,4.61,0,0,1-.08-2.17A2.83,2.83,0,0,0,3,10.84Z"/></g></g></svg>