<svg xmlns="http://www.w3.org/2000/svg" viewBox="0 0 18.37 14.52"><defs><style>.cls-1{fill:#26a3b9;}.cls-2{fill:#168aa5;}.cls-3{fill:#d9ecf2;}.cls-4{fill:#bdd9e5;}</style></defs><title>Recurso 16</title><g id="Capa_2" data-name="Capa 2"><g id="Layer_1" data-name="Layer 1"><path class="cls-1" d="M9.81,8.18H1.88a.5.5,0,1,1,0-1H9.81a.5.5,0,1,1,0,1Z"/><path class="cls-2" d="M13.64,8.18H12.05a.5.5,0,1,1,0-1h1.59a.5.5,0,1,1,0,1Z"/><path class="cls-1" d="M16.26,8.18h-.55a.5.5,0,1,1,0-1h.55a.5.5,0,0,1,0,1Z"/><path class="cls-3" d="M10.66,12.61H5.34a.51.51,0,0,1,0-1h5.32a.51.51,0,0,1,0,1Z"/><path class="cls-3" d="M3.24,12.61H.5a.51.51,0,0,1,0-1H3.24a.51.51,0,0,1,0,1Z"/><path class="cls-1" d="M13.33,6.05H.5a.5.5,0,0,1,0-1H13.33a2,2,0,1,0-2-2,.5.5,0,0,1-1,0,3,3,0,1,1,3,3Z"/><path class="cls-1" d="M15.76,14.52a2.61,2.61,0,0,1-2.61-2.6.51.51,0,0,1,1,0,1.6,1.6,0,1,0,1.6-1.61H5.22a.5.5,0,0,1-.5-.5.51.51,0,0,1,.5-.5H15.76a2.61,2.61,0,1,1,0,5.21Z"/><path class="cls-2" d="M9.81,7.18H9.23a.5.5,0,0,1,0,1h.58a.5.5,0,1,0,0-1Z"/><path class="cls-2" d="M16.26,7.18h-.57a.5.5,0,0,1,0,1h.57a.5.5,0,0,0,0-1Z"/><path class="cls-4" d="M10.66,11.6h-.58a.51.51,0,0,1,0,1h.58a.51.51,0,0,0,0-1Z"/><path class="cls-4" d="M3.24,11.6H2.65a.51.51,0,1,1,0,1h.59a.51.51,0,0,0,0-1Z"/><path class="cls-2" d="M10.73,3a.52.52,0,0,1-.21.4.48.48,0,0,0,.29.1.5.5,0,0,0,.5-.5A2,2,0,0,1,13,1a1.36,1.36,0,0,0-.29,0A2,2,0,0,0,10.73,3Z"/><path class="cls-2" d="M13.33,0H13a3,3,0,0,1-.29,6h.58a3,3,0,1,0,0-6Z"/><path class="cls-2" d="M14.16,11.92a.5.5,0,0,0-.51-.5.48.48,0,0,0-.29.09.49.49,0,0,1,.21.41,1.6,1.6,0,0,0,1.6,1.6l.3,0A1.6,1.6,0,0,1,14.16,11.92Z"/><path class="cls-2" d="M15.76,9.31h-.59a2.61,2.61,0,0,1,.3,5.2h.29a2.61,2.61,0,1,0,0-5.21Z"/></g></g></svg>