<svg xmlns="http://www.w3.org/2000/svg" viewBox="0 0 18.85 16.04"><defs><style>.cls-1{fill:#fabe02;}.cls-2{fill:#f59a1d;}.cls-3{fill:#d9ecf2;}.cls-4{fill:#bdd9e5;}</style></defs><title>Recurso 3</title><g id="Capa_2" data-name="Capa 2"><g id="Layer_1" data-name="Layer 1"><path class="cls-1" d="M10.83,2.79A5.23,5.23,0,1,0,16.06,8,5.23,5.23,0,0,0,10.83,2.79Z"/><path class="cls-2" d="M8.47,3.35a5.23,5.23,0,0,0,0,9.34,5.24,5.24,0,0,0,0-9.34Z"/><path class="cls-2" d="M10.83,2.79a4.63,4.63,0,0,0-.65,0,5.23,5.23,0,0,1,0,10.38,4.63,4.63,0,0,0,.65,0,5.23,5.23,0,0,0,0-10.46Z"/><path class="cls-1" d="M10.83,1.84a.28.28,0,0,1-.28-.28V.29A.28.28,0,0,1,10.83,0a.29.29,0,0,1,.29.29V1.56A.29.29,0,0,1,10.83,1.84Z"/><path class="cls-1" d="M7.6,2.71a.29.29,0,0,1-.25-.14L6.72,1.46a.28.28,0,0,1,.1-.39.29.29,0,0,1,.39.11l.64,1.1a.29.29,0,0,1-.11.39A.23.23,0,0,1,7.6,2.71Z"/><path class="cls-1" d="M5.23,5.07a.35.35,0,0,1-.14,0L4,4.4A.29.29,0,0,1,3.88,4a.28.28,0,0,1,.39-.1l1.11.63a.29.29,0,0,1,.1.39A.29.29,0,0,1,5.23,5.07Z"/><path class="cls-1" d="M16.43,5.07a.3.3,0,0,1-.25-.14.29.29,0,0,1,.11-.39l1.1-.63a.28.28,0,0,1,.39.1.28.28,0,0,1-.11.39L16.57,5A.32.32,0,0,1,16.43,5.07Z"/><path class="cls-1" d="M14.06,2.71a.27.27,0,0,1-.14,0,.28.28,0,0,1-.1-.39l.63-1.1a.29.29,0,0,1,.39-.11.29.29,0,0,1,.11.39l-.64,1.11A.29.29,0,0,1,14.06,2.71Z"/><path class="cls-1" d="M10.83,16a.27.27,0,0,1-.28-.28V14.49a.28.28,0,0,1,.28-.29.29.29,0,0,1,.29.29v1.27A.28.28,0,0,1,10.83,16Z"/><path class="cls-1" d="M18.57,8.31H17.3A.29.29,0,0,1,17,8a.28.28,0,0,1,.29-.28h1.27a.27.27,0,0,1,.28.28A.28.28,0,0,1,18.57,8.31Z"/><path class="cls-1" d="M4.37,8.31H3.1A.29.29,0,0,1,2.81,8a.28.28,0,0,1,.29-.28H4.37A.28.28,0,0,1,4.65,8,.29.29,0,0,1,4.37,8.31Z"/><path class="cls-1" d="M14.7,15a.29.29,0,0,1-.25-.15l-.63-1.1a.28.28,0,1,1,.49-.28l.64,1.1a.28.28,0,0,1-.11.39A.33.33,0,0,1,14.7,15Z"/><path class="cls-1" d="M17.53,12.17a.32.32,0,0,1-.14,0l-1.1-.64a.28.28,0,1,1,.28-.49l1.1.63a.28.28,0,0,1-.14.53Z"/><path class="cls-1" d="M4.13,12.17A.3.3,0,0,1,3.88,12,.29.29,0,0,1,4,11.64L5.09,11a.28.28,0,0,1,.39.1.29.29,0,0,1-.1.39l-1.11.64A.32.32,0,0,1,4.13,12.17Z"/><path class="cls-1" d="M7,15a.37.37,0,0,1-.14,0,.28.28,0,0,1-.1-.39l.63-1.1a.29.29,0,0,1,.39-.11.29.29,0,0,1,.11.39l-.64,1.1A.27.27,0,0,1,7,15Z"/><path class="cls-3" d="M5.23,2.79A5.23,5.23,0,1,0,10.47,8,5.23,5.23,0,0,0,5.23,2.79Z"/><path class="cls-4" d="M5.23,2.79a6.3,6.3,0,0,0-.75,0,5.23,5.23,0,0,1,0,10.36,4.73,4.73,0,0,0,.75.05,5.23,5.23,0,1,0,0-10.46Z"/><path class="cls-4" d="M6.48,5.64a.72.72,0,1,1-.72-.72A.72.72,0,0,1,6.48,5.64Z"/><path class="cls-3" d="M9.13,4.53A.92.92,0,0,0,9.66,6.2a.89.89,0,0,0,.43-.11A5.09,5.09,0,0,0,9.13,4.53Z"/><path class="cls-4" d="M4.68,9A1.28,1.28,0,1,1,3.4,7.74,1.27,1.27,0,0,1,4.68,9Z"/><path class="cls-4" d="M8.61,9.74a.72.72,0,0,1-.72.72A.72.72,0,1,1,7.89,9,.72.72,0,0,1,8.61,9.74Z"/><path class="cls-4" d="M5.36,11.47H1.3a4.86,4.86,0,0,0,.93.83H5.36a.41.41,0,0,0,.42-.41A.42.42,0,0,0,5.36,11.47Z"/><path class="cls-4" d="M.21,6.55H1.54A.41.41,0,0,0,2,6.14a.42.42,0,0,0-.42-.42h-1A5.26,5.26,0,0,0,.21,6.55Z"/><path class="cls-4" d="M10.42,7.32H9a.42.42,0,0,0-.42.42A.41.41,0,0,0,9,8.15h1.45s0-.08,0-.13A5.36,5.36,0,0,0,10.42,7.32Z"/><path class="cls-3" d="M10.45,7.69V7.64l0-.32H8.92A5.32,5.32,0,0,1,9,8v.13h1.5s0-.08,0-.13S10.46,7.8,10.45,7.69Z"/></g></g></svg>