<svg xmlns="http://www.w3.org/2000/svg" viewBox="0 0 19.23 16.39"><defs><style>.cls-1{fill:#26a3b9;}.cls-2{fill:#168aa5;}.cls-3{fill:#fabe02;}.cls-4{fill:#f59a1d;}.cls-5{fill:#bdd9e5;}</style></defs><title>Recurso 8</title><g id="Capa_2" data-name="Capa 2"><g id="Layer_1" data-name="Layer 1"><path class="cls-1" d="M17.34,4.5c0-.12,0-.24,0-.35A2.8,2.8,0,0,0,12.81,2a4.47,4.47,0,0,0-8,1.39A2.94,2.94,0,1,0,3.5,8.93H17a2.23,2.23,0,0,0,.35-4.43Z"/><path class="cls-2" d="M9.2,6.09,6.93,8.93H10l2.27-2.84Z"/><path class="cls-2" d="M17.34,4.5c0-.12,0-.24,0-.35a2.8,2.8,0,0,0-2.8-2.8,2.74,2.74,0,0,0-.76.11,2.78,2.78,0,0,1,2,2.69,2.16,2.16,0,0,1,0,.35,2.23,2.23,0,0,1-.34,4.43H17a2.23,2.23,0,0,0,.35-4.43Z"/><path class="cls-2" d="M3.5,3.05H3.23A4.31,4.31,0,0,0,4.86,5.52a4.69,4.69,0,0,1-.07-2.17A3,3,0,0,0,3.5,3.05Z"/><polygon class="cls-3" points="14.63 10.26 12.63 10.26 10.68 12.7 12.39 12.7 10.47 15.11 15.08 12.08 13.17 12.08 14.63 10.26"/><polygon class="cls-3" points="11.09 6.09 7.97 6.09 4.93 9.91 7.6 9.91 4.6 13.67 11.79 8.93 8.82 8.93 11.09 6.09"/><polygon class="cls-4" points="13.17 12.08 14.63 10.26 13.68 10.26 12.22 12.08 13.17 12.08"/><polygon class="cls-4" points="14.13 12.08 11.52 13.8 10.47 15.11 15.08 12.08 14.13 12.08"/><polygon class="cls-4" points="8.82 8.93 11.09 6.09 10.14 6.09 7.87 8.93 8.82 8.93"/><polygon class="cls-4" points="10.84 8.93 5.65 12.36 4.6 13.67 11.79 8.93 10.84 8.93"/><path class="cls-5" d="M.29,14a.28.28,0,0,1-.18-.06.28.28,0,0,1,0-.4l.74-.93a.29.29,0,0,1,.4,0,.28.28,0,0,1,.05.4l-.74.93A.28.28,0,0,1,.29,14Z"/><path class="cls-1" d="M1.77,12.1A.26.26,0,0,1,1.59,12a.28.28,0,0,1,0-.4L2.94,9.89a.28.28,0,0,1,.4-.05.29.29,0,0,1,0,.4L2,12A.29.29,0,0,1,1.77,12.1Z"/><path class="cls-5" d="M.88,16.39a.3.3,0,0,1-.18-.06.29.29,0,0,1,0-.4l.89-1.12a.28.28,0,1,1,.44.36L1.1,16.28A.28.28,0,0,1,.88,16.39Z"/><path class="cls-1" d="M2.46,14.4a.27.27,0,0,1-.17-.06.28.28,0,0,1,0-.4l.63-.78a.28.28,0,0,1,.4-.05.29.29,0,0,1,0,.4l-.62.79A.29.29,0,0,1,2.46,14.4Z"/><path class="cls-5" d="M3.8,12.73a.32.32,0,0,1-.18-.06.29.29,0,0,1,0-.4l1.2-1.51a.29.29,0,0,1,.4,0,.28.28,0,0,1,.05.4L4,12.62A.28.28,0,0,1,3.8,12.73Z"/><path class="cls-5" d="M3.42,16.39a.3.3,0,0,1-.18-.06.29.29,0,0,1,0-.4l1.18-1.48a.28.28,0,1,1,.44.36L3.64,16.28A.28.28,0,0,1,3.42,16.39Z"/><path class="cls-5" d="M6,16.39a.3.3,0,0,1-.18-.06.29.29,0,0,1,0-.4l1.58-2a.29.29,0,0,1,.4,0,.29.29,0,0,1,0,.4l-1.59,2A.29.29,0,0,1,6,16.39Z"/><path class="cls-1" d="M8.37,13.37a.3.3,0,0,1-.18-.06.29.29,0,0,1,0-.4l1.33-1.68a.29.29,0,0,1,.4,0,.28.28,0,0,1,0,.4L8.59,13.26A.28.28,0,0,1,8.37,13.37Z"/><path class="cls-5" d="M8.5,16.39a.3.3,0,0,1-.18-.06.3.3,0,0,1-.05-.4l1.85-2.31a.28.28,0,1,1,.44.36l-1.84,2.3A.29.29,0,0,1,8.5,16.39Z"/><path class="cls-1" d="M11,16.39a.28.28,0,0,1-.18-.06.3.3,0,0,1,0-.4l.3-.37a.28.28,0,0,1,.44.36l-.29.36A.29.29,0,0,1,11,16.39Z"/><path class="cls-5" d="M15,11.49a.28.28,0,0,1-.17-.07.28.28,0,0,1,0-.4l.91-1.13a.28.28,0,0,1,.4-.05.29.29,0,0,1,0,.4l-.9,1.14A.3.3,0,0,1,15,11.49Z"/><path class="cls-5" d="M13.58,16.39a.28.28,0,0,1-.18-.06.3.3,0,0,1-.05-.4l1.11-1.39a.29.29,0,0,1,.4,0,.29.29,0,0,1,.05.4L13.8,16.28A.29.29,0,0,1,13.58,16.39Z"/><path class="cls-1" d="M15.29,14.24a.32.32,0,0,1-.18-.06.29.29,0,0,1,0-.4l.3-.38a.29.29,0,0,1,.41-.05.29.29,0,0,1,0,.4l-.31.38A.24.24,0,0,1,15.29,14.24Z"/><path class="cls-1" d="M16.35,12.92a.26.26,0,0,1-.18-.07.28.28,0,0,1,0-.4l1.35-1.69a.28.28,0,1,1,.44.36l-1.35,1.69A.28.28,0,0,1,16.35,12.92Z"/></g></g></svg>