<svg xmlns="http://www.w3.org/2000/svg" viewBox="0 0 16.01 17.63"><defs><style>.cls-1{fill:#d9ecf2;}.cls-2{fill:#bdd9e5;}.cls-3{fill:#fabe02;}.cls-4{fill:#f59a1d;}</style></defs><title>Recurso 14</title><g id="Capa_2" data-name="Capa 2"><g id="Layer_1" data-name="Layer 1"><path class="cls-1" d="M7,9.89A8.86,8.86,0,0,1,7.45,0a9,9,0,0,0-3.2,1.18A8.88,8.88,0,1,0,16,14,8.86,8.86,0,0,1,7,9.89Z"/><path class="cls-2" d="M7,9.89A8.86,8.86,0,0,1,7.45,0,8.92,8.92,0,0,0,4.34,1.13,8.67,8.67,0,0,1,5.54.85a8.87,8.87,0,0,0,8.56,14,8.84,8.84,0,0,1-2.51,2.31l-.1.06a9.5,9.5,0,0,0,2-.91A8.84,8.84,0,0,0,16,14,8.86,8.86,0,0,1,7,9.89Z"/><path class="cls-1" d="M9.27,12.37a1.21,1.21,0,1,0,2.1,1.16A9,9,0,0,1,9.27,12.37Z"/><path class="cls-2" d="M6.32,17.25a1.55,1.55,0,0,0-2.24-1.94,1.52,1.52,0,0,0-.53.54A8.93,8.93,0,0,0,6.32,17.25Z"/><path class="cls-2" d="M2.47,9.26a1.23,1.23,0,0,1,.41-1.69,1.22,1.22,0,1,1-.41,1.69Z"/><path class="cls-2" d="M6.46,1.72,3.63,3.45a.7.7,0,1,0,.73,1.2l1.5-.91A9,9,0,0,1,6.46,1.72Z"/><path class="cls-1" d="M6.46,1.72,4.38,3a9,9,0,0,0-.47,1.76.67.67,0,0,0,.45-.1l1.49-.91A9,9,0,0,1,6.46,1.72Z"/><path class="cls-2" d="M2,14.35l2-1.24a.71.71,0,0,0-.74-1.21l-2.1,1.29.11.19A8.48,8.48,0,0,0,2,14.35Z"/><polygon class="cls-3" points="13.07 4.59 11.74 4.76 12.41 3.6 11.85 2.39 13.15 2.68 14.13 1.77 14.26 3.1 15.44 3.75 14.21 4.28 13.95 5.6 13.07 4.59"/><polygon class="cls-4" points="14.26 3.1 14.13 1.77 13.59 3.33 14.22 3.72 13.51 4.15 13.95 5.6 14.21 4.28 15.44 3.75 14.26 3.1"/><polygon class="cls-3" points="11.42 9.77 10.72 10.56 10.52 9.52 9.56 9.09 10.48 8.59 10.59 7.54 11.36 8.26 12.39 8.04 11.94 8.99 12.47 9.9 11.42 9.77"/><polygon class="cls-4" points="10.59 7.54 11.01 8.81 11.74 8.62 11.37 9.19 12.47 9.9 11.94 8.99 12.39 8.04 11.36 8.26 10.59 7.54"/></g></g></svg>