<svg xmlns="http://www.w3.org/2000/svg" viewBox="0 0 18.67 11.28"><defs><style>.cls-1{fill:#d9ecf2;}.cls-2{fill:#bdd9e5;}.cls-3{fill:#26a3b9;}.cls-4{fill:#168aa5;}</style></defs><title>Recurso 6</title><g id="Capa_2" data-name="Capa 2"><g id="Layer_1" data-name="Layer 1"><path class="cls-1" d="M4.76,0a2.17,2.17,0,0,0-2.1,1.66,1.31,1.31,0,0,0-.56-.12,1.39,1.39,0,1,0,0,2.78H4.76A2.16,2.16,0,1,0,4.76,0Z"/><path class="cls-2" d="M6.93,2.16A2.15,2.15,0,0,0,5.82.28,4.49,4.49,0,0,0,3.59,3.11a3,3,0,0,0-1.29-.3,3,3,0,0,0-1.56.44A1.39,1.39,0,0,0,2.1,4.32H4.76A2.16,2.16,0,0,0,6.93,2.16Z"/><path class="cls-2" d="M2.1,1.54H2a1.25,1.25,0,0,0,.63,1,2.15,2.15,0,0,1,0-.92A1.31,1.31,0,0,0,2.1,1.54Z"/><path class="cls-3" d="M16.78,4.9c0-.12,0-.24,0-.35a2.8,2.8,0,0,0-4.54-2.19,4.47,4.47,0,0,0-8,1.39,2.91,2.91,0,0,0-1.29-.3,2.94,2.94,0,0,0,0,5.88h13.5a2.23,2.23,0,0,0,.34-4.43Z"/><path class="cls-4" d="M16.78,4.9c0-.12,0-.24,0-.35A2.79,2.79,0,0,0,14,1.75a2.84,2.84,0,0,0-.72.09,2.79,2.79,0,0,1,2.09,2.71c0,.11,0,.23,0,.35A2.23,2.23,0,0,1,15,9.33h1.43a2.23,2.23,0,0,0,.34-4.43Z"/><path class="cls-4" d="M14.09,6.25a2,2,0,0,0-.84.18A2.75,2.75,0,0,0,8,7.3a1.49,1.49,0,0,0-.43-.07A1.56,1.56,0,0,0,6.05,8.8a1.61,1.61,0,0,0,.1.53h9.72a2.09,2.09,0,0,0,.28-1A2.05,2.05,0,0,0,14.09,6.25Z"/><path class="cls-4" d="M3.21,3.46a3.32,3.32,0,0,0,1.1,2.46,4.61,4.61,0,0,1-.08-2.17A3.16,3.16,0,0,0,3.21,3.46Z"/><path class="cls-1" d="M14.09,7.17a2.11,2.11,0,0,0-.84.18A2.75,2.75,0,0,0,8,8.22a1.49,1.49,0,0,0-.43-.06,1.56,1.56,0,0,0,0,3.12h6.48a2.06,2.06,0,1,0,0-4.11Z"/><path class="cls-2" d="M12.2,7.35A2.14,2.14,0,0,1,13,7.17h.11a2.73,2.73,0,0,0-2.38-1.39,3.07,3.07,0,0,0-.53,0A2.76,2.76,0,0,1,12.2,7.35Z"/><path class="cls-2" d="M14.09,7.17a2.25,2.25,0,0,0-.52.07,2.05,2.05,0,0,1-.53,4h1.05a2.06,2.06,0,1,0,0-4.11Z"/><path class="cls-2" d="M13.45,8.73a1.78,1.78,0,0,0,.6-1.56,2.13,2.13,0,0,0-.8.18A2.78,2.78,0,0,1,13.45,8.73Z"/></g></g></svg>