<svg xmlns="http://www.w3.org/2000/svg" viewBox="0 0 18.24 14.57"><defs><style>.cls-1{fill:#26a3b9;}.cls-2{fill:#168aa5;}.cls-3{fill:#d9ecf2;}.cls-4{fill:#bdd9e5;}</style></defs><title>Recurso 10</title><g id="Capa_2" data-name="Capa 2"><g id="Layer_1" data-name="Layer 1"><path class="cls-1" d="M3.59,13.5a1.08,1.08,0,0,1-2.15,0,7.06,7.06,0,0,1,1.08-2.14A7.09,7.09,0,0,1,3.59,13.5Z"/><path class="cls-1" d="M7.21,10a1.08,1.08,0,0,1-2.15,0A7,7,0,0,1,6.14,7.83,7,7,0,0,1,7.21,10Z"/><path class="cls-1" d="M10.19,13.5a1.07,1.07,0,0,1-2.14,0,7.09,7.09,0,0,1,1.07-2.14A7.09,7.09,0,0,1,10.19,13.5Z"/><path class="cls-1" d="M13.81,10a1.07,1.07,0,0,1-2.14,0,7,7,0,0,1,1.07-2.15A7,7,0,0,1,13.81,10Z"/><path class="cls-2" d="M5.13,9.65h2a9.91,9.91,0,0,0-1-1.82A10.39,10.39,0,0,0,5.13,9.65Z"/><path class="cls-2" d="M13.75,9.65a10.39,10.39,0,0,0-1-1.82,9.91,9.91,0,0,0-1,1.82Z"/><path class="cls-1" d="M16.8,13.5a1.08,1.08,0,0,1-2.15,0,7.06,7.06,0,0,1,1.08-2.14A7.09,7.09,0,0,1,16.8,13.5Z"/><path class="cls-2" d="M2.52,11.36s-.11.15-.25.37a5.22,5.22,0,0,1,.82,1.77,1.06,1.06,0,0,1-.82,1,1,1,0,0,0,.25,0A1.07,1.07,0,0,0,3.59,13.5,7.09,7.09,0,0,0,2.52,11.36Z"/><path class="cls-2" d="M6.14,7.83S6,8,5.89,8.21A5.22,5.22,0,0,1,6.71,10a1.07,1.07,0,0,1-.82,1,1,1,0,0,0,.25,0A1.07,1.07,0,0,0,7.21,10,7,7,0,0,0,6.14,7.83Z"/><path class="cls-2" d="M9.12,11.36l-.25.37A5.08,5.08,0,0,1,9.7,13.5a1.07,1.07,0,0,1-.83,1,1.07,1.07,0,0,0,1.32-1A7.09,7.09,0,0,0,9.12,11.36Z"/><path class="cls-2" d="M12.74,7.83l-.25.38A5.08,5.08,0,0,1,13.32,10a1.07,1.07,0,0,1-.83,1,1.07,1.07,0,0,0,1.32-1A7,7,0,0,0,12.74,7.83Z"/><path class="cls-2" d="M15.73,11.36s-.11.15-.25.37a5,5,0,0,1,.82,1.77,1.06,1.06,0,0,1-.82,1,1,1,0,0,0,.25,0A1.07,1.07,0,0,0,16.8,13.5,7.09,7.09,0,0,0,15.73,11.36Z"/><path class="cls-3" d="M15,2.5a3.21,3.21,0,0,0-1.41.33,4.51,4.51,0,0,0-8.47.28A3,3,0,0,0,2.47,4.73l-.31,0A2.16,2.16,0,1,0,2.16,9H15A3.26,3.26,0,0,0,15,2.5Z"/><path class="cls-4" d="M12.47,3.27a2.46,2.46,0,0,1,1.1-.44,2.69,2.69,0,0,0-.14-.32A4.5,4.5,0,0,0,9.39,0a4.62,4.62,0,0,0-.65.05A4.88,4.88,0,0,1,12.47,3.27Z"/><path class="cls-4" d="M15,2.5a3.3,3.3,0,0,0-.64.07A3.26,3.26,0,0,1,13.67,9H15A3.26,3.26,0,0,0,15,2.5Z"/><path class="cls-4" d="M4.22,3.25A2.82,2.82,0,0,0,5.35,5.14a2.24,2.24,0,0,1-.25-2A2.84,2.84,0,0,0,4.22,3.25Z"/><path class="cls-4" d="M2.16,4.71a2.47,2.47,0,0,0-.39,0A2.33,2.33,0,0,0,2.31,6a2.36,2.36,0,0,1,.16-1.24Z"/></g></g></svg>