<svg xmlns="http://www.w3.org/2000/svg" viewBox="0 0 18.5 18.5"><defs><style>.cls-1{fill:#fabe02;}.cls-2{fill:#f59a1d;}</style></defs><title>Recurso 2</title><g id="Capa_2" data-name="Capa 2"><g id="Layer_1" data-name="Layer 1"><circle class="cls-1" cx="9.25" cy="9.25" r="6.06"/><path class="cls-2" d="M9.25,3.19a5.53,5.53,0,0,0-.71,0,6.06,6.06,0,0,1,0,12,5.53,5.53,0,0,0,.71,0,6.06,6.06,0,0,0,0-12.12Z"/><path class="cls-2" d="M5.68,12.25a.28.28,0,0,1-.23-.12,1.43,1.43,0,0,1-.14-.2.28.28,0,0,1,.07-.39.29.29,0,0,1,.4.07l.13.18a.29.29,0,0,1-.06.4A.27.27,0,0,1,5.68,12.25Z"/><path class="cls-2" d="M5.1,11.23a.3.3,0,0,1-.27-.18,4.81,4.81,0,0,1-.35-1.8.29.29,0,1,1,.57,0,4.33,4.33,0,0,0,.31,1.59.29.29,0,0,1-.15.37Z"/><path class="cls-1" d="M9.25,2A.28.28,0,0,1,9,1.76V.29A.29.29,0,0,1,9.25,0a.28.28,0,0,1,.28.29V1.76A.27.27,0,0,1,9.25,2ZM5.65,3a.29.29,0,0,0,.1-.39L5,1.34a.28.28,0,0,0-.49.29L5.26,2.9a.27.27,0,0,0,.24.15A.28.28,0,0,0,5.65,3ZM3,5.65a.28.28,0,0,0-.11-.39L1.63,4.52A.28.28,0,1,0,1.34,5l1.28.74a.23.23,0,0,0,.14,0A.29.29,0,0,0,3,5.65Zm12.87.1L17.16,5a.28.28,0,0,0-.29-.49l-1.28.74a.29.29,0,0,0-.1.39.29.29,0,0,0,.25.14A.27.27,0,0,0,15.88,5.75ZM13.24,2.9,14,1.63a.28.28,0,0,0-.11-.39.29.29,0,0,0-.39.1l-.73,1.28a.29.29,0,0,0,.1.39.28.28,0,0,0,.39-.11ZM9.53,18.21V16.74a.28.28,0,0,0-.28-.29.29.29,0,0,0-.29.29v1.47a.29.29,0,0,0,.29.29A.28.28,0,0,0,9.53,18.21Zm9-9A.29.29,0,0,0,18.21,9H16.74a.29.29,0,0,0-.29.29.28.28,0,0,0,.29.28h1.47A.28.28,0,0,0,18.5,9.25ZM2,9.25A.28.28,0,0,0,1.76,9H.29A.29.29,0,0,0,0,9.25a.28.28,0,0,0,.29.28H1.76A.27.27,0,0,0,2,9.25Zm11.83,8a.28.28,0,0,0,.11-.39l-.74-1.28a.28.28,0,0,0-.49.29l.73,1.28a.3.3,0,0,0,.25.14A.23.23,0,0,0,13.87,17.26Zm3.39-3.39a.29.29,0,0,0-.1-.39l-1.28-.73a.28.28,0,1,0-.29.49l1.28.74A.33.33,0,0,0,17,14,.27.27,0,0,0,17.26,13.87ZM1.63,14l1.27-.74A.28.28,0,0,0,3,12.85a.29.29,0,0,0-.39-.1l-1.28.73a.29.29,0,0,0-.1.39.27.27,0,0,0,.25.15A.43.43,0,0,0,1.63,14ZM5,17.16l.74-1.28a.28.28,0,1,0-.49-.29l-.74,1.28a.29.29,0,0,0,.1.39.28.28,0,0,0,.15,0A.27.27,0,0,0,5,17.16Z"/></g></g></svg>