<svg xmlns="http://www.w3.org/2000/svg" viewBox="0 0 18.87 13.87"><defs><style>.cls-1{fill:#b41d6c;}.cls-2{fill:#93134a;}.cls-3{fill:#ff414d;}.cls-4{fill:#d8283f;}.cls-5{fill:#fabe02;}.cls-6{fill:#f59a1d;}.cls-7{fill:#d9ecf2;}.cls-8{fill:#bdd9e5;}</style></defs><title>Recurso 20</title><g id="Capa_2" data-name="Capa 2"><g id="Layer_1" data-name="Layer 1"><path class="cls-1" d="M9.1,0A7.73,7.73,0,0,0,3.63,2.27l.91.91h0L6.37,5A3.87,3.87,0,0,1,13,7.73V11h3.86V7.73h0A7.74,7.74,0,0,0,9.1,0Z"/><path class="cls-2" d="M8.56,3.87a3.89,3.89,0,0,0-2.45.87L6.37,5A3.81,3.81,0,0,1,8.83,3.88Z"/><path class="cls-2" d="M9.1,0H8.83A7.73,7.73,0,0,1,16.3,7.73h0V11h.54V7.73h0A7.74,7.74,0,0,0,9.1,0Z"/><path class="cls-3" d="M9.1,1.29A6.42,6.42,0,0,0,4.54,3.18L6.37,5A3.87,3.87,0,0,1,13,7.73V11h2.58V7.73h0A6.44,6.44,0,0,0,9.1,1.29Z"/><path class="cls-4" d="M9.1,1.29H8.86a6.45,6.45,0,0,1,6.2,6.44h0V11h.49V7.73h0A6.44,6.44,0,0,0,9.1,1.29Z"/><path class="cls-4" d="M8.62,3.87a3.89,3.89,0,0,0-2.49.9L6.37,5A3.83,3.83,0,0,1,8.86,3.87Z"/><path class="cls-5" d="M9.1,2.58A5.14,5.14,0,0,0,5.45,4.09L6.37,5A3.87,3.87,0,0,1,13,7.73V11h1.29V7.73A5.16,5.16,0,0,0,9.1,2.58Z"/><path class="cls-6" d="M8.68,3.87a3.82,3.82,0,0,0-2.51.93l.2.2A3.85,3.85,0,0,1,8.89,3.87Z"/><path class="cls-6" d="M9.1,2.58H8.89a5.16,5.16,0,0,1,4.95,5.15V11h.42V7.73A5.16,5.16,0,0,0,9.1,2.58Z"/><path class="cls-7" d="M1.38,3.14a1.47,1.47,0,0,1,.72.2,2,2,0,0,1,4,.28A1.16,1.16,0,1,1,6.35,5.9h-5a1.38,1.38,0,0,1,0-2.76Z"/><path class="cls-8" d="M6.35,3.58a1.17,1.17,0,0,0-.27,0,2,2,0,0,0-2-1.78,2.3,2.3,0,0,0-.45,0A2,2,0,0,1,5.18,3.62a1.26,1.26,0,0,1,.27,0,1.16,1.16,0,1,1,0,2.32h.9a1.16,1.16,0,0,0,0-2.32Z"/><path class="cls-8" d="M2.44,2.65a2,2,0,0,0-.34.69,1.2,1.2,0,0,1,.52,1A3,3,0,0,0,2.44,2.65Z"/><path class="cls-7" d="M11.73,10.66a1.53,1.53,0,0,1,.84.24,2.37,2.37,0,0,1,4.64.31,1.55,1.55,0,0,1,.32,0,1.35,1.35,0,0,1,0,2.7h-5.8a1.61,1.61,0,1,1,0-3.21Z"/><path class="cls-8" d="M17.53,11.17a1.55,1.55,0,0,0-.32,0,2.37,2.37,0,0,0-2.35-2.07,2.26,2.26,0,0,0-.53.06,2.36,2.36,0,0,1,1.82,2,1.75,1.75,0,0,1,.32,0,1.35,1.35,0,1,1,0,2.7h1.06a1.35,1.35,0,0,0,0-2.7Z"/><path class="cls-8" d="M13.07,10a2.35,2.35,0,0,0-.5,1,1.38,1.38,0,0,1,.6,1.11A3.78,3.78,0,0,0,13.07,10Z"/><path class="cls-7" d="M8,8.66a1,1,0,0,0-.54.16,1.54,1.54,0,0,0-3,.21.64.64,0,0,0-.2,0,.88.88,0,1,0,0,1.75H8A1,1,0,1,0,8,8.66Z"/><path class="cls-8" d="M7.43,8.67v0h0A1.53,1.53,0,0,0,6,7.68a1.06,1.06,0,0,0-.25,0,1.58,1.58,0,0,1,1,.6A1.62,1.62,0,0,1,7,9.23a1.87,1.87,0,0,0,.06.31.89.89,0,0,1,.39-.72l-.05-.15Z"/><path class="cls-8" d="M8,8.66l-.24,0a1.06,1.06,0,0,1,.79,1,1,1,0,0,1-1.05,1H8A1,1,0,1,0,8,8.66Z"/></g></g></svg>